<mxfile host="app.diagrams.net" agent="Mozilla/5.0 (Windows NT 10.0; Win64; x64) AppleWebKit/537.36 (KHTML, like Gecko) Chrome/129.0.0.0 Safari/537.36" version="24.7.16">
  <diagram name="Page-1" id="A8uqxhWtdfNMy5FnDdoQ">
    <mxGraphModel dx="1434" dy="738" grid="1" gridSize="10" guides="1" tooltips="1" connect="1" arrows="1" fold="1" page="1" pageScale="1" pageWidth="850" pageHeight="1100" math="0" shadow="0">
      <root>
        <mxCell id="0" />
        <mxCell id="1" parent="0" />
        <mxCell id="OrTmt1RVUYFcJPQC6j06-10" value="" style="rounded=1;whiteSpace=wrap;html=1;" vertex="1" parent="1">
          <mxGeometry x="110" y="190" width="620" height="230" as="geometry" />
        </mxCell>
        <mxCell id="OrTmt1RVUYFcJPQC6j06-3" value="" style="edgeStyle=orthogonalEdgeStyle;rounded=0;orthogonalLoop=1;jettySize=auto;html=1;dashed=1;" edge="1" parent="1" source="OrTmt1RVUYFcJPQC6j06-1" target="OrTmt1RVUYFcJPQC6j06-2">
          <mxGeometry relative="1" as="geometry" />
        </mxCell>
        <mxCell id="OrTmt1RVUYFcJPQC6j06-1" value="&lt;font color=&quot;#000000&quot; style=&quot;font-size: 15px;&quot;&gt;初始编码器&lt;/font&gt;" style="rounded=0;whiteSpace=wrap;html=1;fillColor=#dae8fc;strokeColor=#6c8ebf;fontSize=15;" vertex="1" parent="1">
          <mxGeometry y="120" width="110" height="40" as="geometry" />
        </mxCell>
        <mxCell id="OrTmt1RVUYFcJPQC6j06-5" value="" style="edgeStyle=orthogonalEdgeStyle;rounded=0;orthogonalLoop=1;jettySize=auto;html=1;dashed=1;" edge="1" parent="1" source="OrTmt1RVUYFcJPQC6j06-2" target="OrTmt1RVUYFcJPQC6j06-4">
          <mxGeometry relative="1" as="geometry" />
        </mxCell>
        <mxCell id="OrTmt1RVUYFcJPQC6j06-2" value="预训练" style="rounded=1;whiteSpace=wrap;html=1;fontSize=15;fillColor=#ffe6cc;strokeColor=#d79b00;" vertex="1" parent="1">
          <mxGeometry x="150" y="120" width="110" height="40" as="geometry" />
        </mxCell>
        <mxCell id="OrTmt1RVUYFcJPQC6j06-7" value="" style="edgeStyle=orthogonalEdgeStyle;rounded=0;orthogonalLoop=1;jettySize=auto;html=1;dashed=1;" edge="1" parent="1" source="OrTmt1RVUYFcJPQC6j06-4" target="OrTmt1RVUYFcJPQC6j06-6">
          <mxGeometry relative="1" as="geometry" />
        </mxCell>
        <mxCell id="OrTmt1RVUYFcJPQC6j06-4" value="&lt;font color=&quot;#000000&quot; style=&quot;font-size: 15px;&quot;&gt;预训练编码器&lt;/font&gt;" style="rounded=0;whiteSpace=wrap;html=1;fillColor=#dae8fc;strokeColor=#6c8ebf;fontSize=15;" vertex="1" parent="1">
          <mxGeometry x="300" y="120" width="110" height="40" as="geometry" />
        </mxCell>
        <mxCell id="OrTmt1RVUYFcJPQC6j06-9" value="" style="edgeStyle=orthogonalEdgeStyle;rounded=0;orthogonalLoop=1;jettySize=auto;html=1;dashed=1;" edge="1" parent="1" source="OrTmt1RVUYFcJPQC6j06-6" target="OrTmt1RVUYFcJPQC6j06-8">
          <mxGeometry relative="1" as="geometry" />
        </mxCell>
        <mxCell id="OrTmt1RVUYFcJPQC6j06-6" value="自监督微调" style="rounded=1;whiteSpace=wrap;html=1;fontSize=15;fillColor=#ffe6cc;strokeColor=#d79b00;" vertex="1" parent="1">
          <mxGeometry x="450" y="120" width="110" height="40" as="geometry" />
        </mxCell>
        <mxCell id="OrTmt1RVUYFcJPQC6j06-13" style="edgeStyle=orthogonalEdgeStyle;rounded=0;orthogonalLoop=1;jettySize=auto;html=1;exitX=1;exitY=0.5;exitDx=0;exitDy=0;entryX=0.5;entryY=0;entryDx=0;entryDy=0;dashed=1;strokeWidth=1;" edge="1" parent="1" source="OrTmt1RVUYFcJPQC6j06-8" target="OrTmt1RVUYFcJPQC6j06-11">
          <mxGeometry relative="1" as="geometry">
            <Array as="points">
              <mxPoint x="730" y="140" />
              <mxPoint x="730" y="180" />
              <mxPoint x="355" y="180" />
            </Array>
          </mxGeometry>
        </mxCell>
        <mxCell id="OrTmt1RVUYFcJPQC6j06-8" value="&lt;font color=&quot;#000000&quot; style=&quot;font-size: 15px;&quot;&gt;预训练微调&lt;/font&gt;&lt;div&gt;&lt;font color=&quot;#000000&quot; style=&quot;font-size: 15px;&quot;&gt;编码器&lt;/font&gt;&lt;/div&gt;" style="rounded=0;whiteSpace=wrap;html=1;fillColor=#dae8fc;strokeColor=#6c8ebf;fontSize=15;" vertex="1" parent="1">
          <mxGeometry x="600" y="120" width="110" height="40" as="geometry" />
        </mxCell>
        <mxCell id="OrTmt1RVUYFcJPQC6j06-19" value="" style="edgeStyle=orthogonalEdgeStyle;rounded=0;orthogonalLoop=1;jettySize=auto;html=1;dashed=1;" edge="1" parent="1" source="OrTmt1RVUYFcJPQC6j06-11" target="OrTmt1RVUYFcJPQC6j06-18">
          <mxGeometry relative="1" as="geometry" />
        </mxCell>
        <mxCell id="OrTmt1RVUYFcJPQC6j06-11" value="任务训练" style="rounded=1;whiteSpace=wrap;html=1;fontSize=15;fillColor=#ffe6cc;strokeColor=#d79b00;" vertex="1" parent="1">
          <mxGeometry x="300" y="220" width="110" height="40" as="geometry" />
        </mxCell>
        <mxCell id="OrTmt1RVUYFcJPQC6j06-16" value="" style="edgeStyle=orthogonalEdgeStyle;rounded=0;orthogonalLoop=1;jettySize=auto;html=1;dashed=1;" edge="1" parent="1" source="OrTmt1RVUYFcJPQC6j06-14" target="OrTmt1RVUYFcJPQC6j06-11">
          <mxGeometry relative="1" as="geometry" />
        </mxCell>
        <mxCell id="OrTmt1RVUYFcJPQC6j06-14" value="" style="shape=image;verticalLabelPosition=bottom;labelBackgroundColor=default;verticalAlign=top;aspect=fixed;imageAspect=0;image=data:image/png,iVBORw0KGgoAAAANSUhEUgAAAGwAAABsCAYAAACPZlfNAAAACXBIWXMAABYlAAAWJQFJUiTwAAAgAElEQVR4AQCMgHN/ARcXF//p6ekABQUFAAMDA//8/PwB/f39/wAAAAEHBwcABwcHAAYGBgADAwMABAQEAAUFBQAGBgYAAwMDAPr6+gD5+fkA9/f3APv7+wD9/f0AAQEB/wICAgECAgL//f39Afz8/AD9/f0ABQUFAAkJCQAFBQUA////APr6+gD7+/sA/v7+/wEBAQEGBgYACAgI/wwMDAEDAwP/+Pj4AfX19QD8/PwAAAAAAAoKCv8jIyMAJSUlAA4ODgD39/cA8fHxAPX19QD4+PgA+/v7APv7+wAAAAAA////APz8/AD09PQA9PT0APr6+gD///8A+/v7APr6+gD9/f0AAwMDAAYGBgAGBgYAAwMDAPz8/AD6+voA+/v7AP39/QD6+voA/Pz8AAICAgEEBAT/BgYGAAgICAAKCgoAAgICAPv7+wD5+fkA+vr6AP39/QD9/f0A/f39AP39/QD+/v4A/v7+AAEBAQAFBQUABQUFAP///wD7+/sA/Pz8AP///wAEBAQAEBAQAAwMDAAAAAAA////AAMDAwD4+PgA9fX1AP39/QAHBwcADAwMAAsLCwAGBgYAREREAAQGBgYAAgIC/wMDAwEEBAQABAQEAP39/QECAgIACAgIAAkJCQAEBAQAAgICAAMDAwABAQEA+fn5//39/QH+/v7/AQEBAQEBAf////8A/v7+AQICAgADAwMAAQEBAP///wABAQEAAAAAAPr6+gD+/v4ABQUFAAUFBQADAwMAAgICAPv7+wD7+/sA+Pj4/////wAJCQkABQUFAAYGBgD6+vr//f39Af39/f/19fUA3NzcAOjo6AAJCQkACgoKABAQEAANDQ0ABgYGAPb29gD7+/sA+/v7AAICAgAHBwcAAwMDAAMDAwDz8/MA+/v7AAAAAAADAwMAAAAAAAICAgACAgIAAwMDAAMDAwACAgIAAgICAAUFBQD9/f0AAwMDAPz8/AADAwP/AwMDAAcHBwAJCQkACQkJAAEBAQABAQEA/Pz8AAICAgAAAAAABAQEAP39/QD39/cAAAAAAAUFBQAEBAQAAwMDAAAAAAD///8AAwMDAAICAgABAQEABAQEAAEBAQD6+voABAQEAAMDAwD///8AAQEBAAQEBAABAQEAAQEBAP///wABAQEABwcHAAcHBwAEBQUF/wQEBAAEBAT/BgYGAAMDA//9/f0BAAAAAAUFBQAEBAQABAQEAAICAgAFBQUA/v7+APz8/AH29vYAAQEBAQcHBwACAgIBAQEBAAICAgADAwMAAQEBAAAAAAH+/v4A////AAEBAQABAQEA////AP39/QADAwMAAwMDAAUFBQACAgIB/v7+APn5+QH+/v7/9PT0AAAAAAECAgIABAQEAQgICAD9/f0A+Pj4AO/v7wDs7OwABgYGABQUFAAAAAAAAAAAAPz8/ADz8/MA8/PzAAAAAAAICAgA////APv7+wD6+voA+/v7AP///wAEBAQA////AP///wD///8A/f39AAAAAAACAgIAAwMDAAQEBAACAgIA/v7+APr6+gD9/f0ABAQEAAQEBAAEBAQAAgICAP39/QD6+voA9/f3APr6+gD///8ABQUFAAYGBgD///8AAwMDAPv7+wACAgIAAQEBAAAAAAD///8AAwMDAAMDAwABAQEA////AAEBAQD+/v4A9/f3AAYGBgAICAgAAgICAAUFBQACAgIA/Pz8AP///wD+/v4A9PT0AAAAAAD9/f0ABP///wH/////AgICAAMDAwACAgIA/f39APz8/AD///8A////AAICAgAEBAQAAwMDAAUFBQAICAgA/Pz8AAICAgAEBAQA/f39//z8/AD7+/sBBAQEAP///wD///8A/v7+AAQEBAAEBAQAAwMDAAAAAAD9/f0A/v7+APr6+gAAAAAAAgICAAMDAwACAgL/////APj4+AABAQH/AwMDAf///wACAgIAAwMDAAQEBAD///8ABQUFAAcHBwACAgIA9fX1APb29gD29vYA9/f3AAEBAQAICAgAAQEBAPb29gD19fUA9/f3AP7+/gAGBgYABAQEAP39/QD8/PwA/f39AP///wADAwMAAQEBAAUFBQAEBAQABQUFAP///wABAQEA/Pz8AAICAgAFBQUABAQEAPz8/AD39/cA9vb2APn5+QABAQEABQUFAAUFBQAFBQUAAAAAAAEBAQD8/PwA+/v7APn5+QD9/f0AAwMDAAcHBwAJCQkA////APr6+gD9/f0A/v7+APn5+QD8/PwA////AAMDAwAGBgYABAQEAP39/QAAAAAAAgICAAMDAwAMDAwADw8PAAQBAQEAAwMDAAUFBQAHBwcAAQEBAP///wD8/PwA/v7+APr6+gABAQEA////AAMDAwAMDAwABgYGAAMDAwD9/f0A/v7+APb29gH8/PwA/Pz8AP7+/gD+/v4A////AAEBAQADAwMABAQEAAMDAwAAAAAAAAAAAAAAAAD///8A/Pz8AAICAgAAAAAAAgICAf7+/v/+/v4A+/v7Afv7+wD///8AAgICAAUFBQALCwsABAQEAAQEBAAEBAQAAQEBAPj4+AD09PQA9vb2AAQEBAAREREABgYGAPf39wD09PQA9PT0AP39/QAKCgoAAgICAP///wD6+voA+vr6AP///wABAQEAAAAAAPz8/AAAAAAAAAAAAAEBAQD+/v4A9/f3APr6+gAAAAAACAgIAAcHBwD8/PwA+/v7AP39/QABAQEAAwMDAAUFBQAEBAQAAAAAAAAAAAAFBQUAAgICAP///wD5+fkA////AAAAAAADAwMAAwMDAP7+/gD+/v4A/v7+AP///wAAAAAA/v7+APz8/AABAQEAAwMDAAICAgAAAAAAAAAAAAwMDAAfHx8AMDAwADAwMAAEBgYGAAkJCQELCwsABwcHAAEBAQACAgIAAgICAP///wD+/v4AAAAAAAUFBQAGBgYABwcHAAMDAwD8/PwA+Pj4APr6+gD////+AgICAAUFBQIAAAAA/v7+AP///wABAQEA+vr6AP7+/gACAgIAAQEBAAICAgAFBQUAAQEBAP7+/gD8/PwA+/v7APv7+wABAQEA////AP///wACAgIA/v7+AP39/QAEBAQABwcHAA0NDQAJCQkABQUFAP///wD09PQA+/v7APv7+wAFBQUABAQEAP7+/gD29vb/9fX1APr6+gEDAwMABQUFAAMDAwD6+voA+fn5APz8/AADAwMAAwMDAAMDAwD///8A/Pz8AP///wD+/v4A/Pz8APT09AD4+PgAAgICAPv7+wD8/PwAAQEBAAAAAAAEBAQAAgICAAEBAQAAAAAA/f39AP///wAAAAAA////AP///wAAAAAABgYGAAMDAwADAwP/AwMDAAEBAQEBAQEABQUFAAAAAAD9/f0ABgYGAAcHBwAKCgoADQ0NABEREQAAAAAA8PDwAP7+/gAgICAAOTk5AEFBQQAiIiIABAgICAAJCQkABgYGAAQEBAD///8ABQUFAAQEBAD///8A/Pz8APr6+gD///8A+fn5APj4+AABAQEAAwMDAAMDAwACAgIABQUFAgkJCQD+/v4A/Pz8APv7+wACAgIAAwMDAP7+/gD7+/sAAAAAAAEBAQAICAgABAQEAAQEBAD6+voA+/v7AP39/QD8/PwAAAAAAAYGBgAFBQUABgYGAP39/QD9/f0ABAQEAAQEBAAICAgADQ0NAAcHBwD///8ABAQEAP39/QD8/PwA+fn5AO/v7wD+/v4A9/f3Afv7+wACAgIABgYGAAMDAwD///8A+vr6APv7+wAAAAAABQUFAAkJCQADAwMA////AP39/QD///8A////AAAAAAACAgIABAQEAAICAgABAQEA+/v7AAQEBAACAgIAAgICAPz8/AD+/v4A/f39AAUFBQAGBgYAAgICAAAAAAD+/v4ABAQEAAQEBAD+/v4A////AQAAAAD4+PgAAQEBAAEBAQD///8A/v7+AAcHBwANDQ0AExMTACMjIwAiIiIAAQEBAOnp6QD+/v4AJycnADk5OQAtLS0ACwsLAAQCAgIA////APr6+gD5+fkAAAAAAAICAgAGBgYAAwMDAP///wD8/PwA+Pj4APr6+gD19fUACgoKAAICAgD+/v4AAAAAAAQEBP7///8A/Pz8Avv7+wAAAAAAAwMDAAUFBQD+/v4A/Pz8AAAAAAADAwMABAQEAP///wD7+/sA/Pz8AP///wABAQEAAwMDAAAAAAAFBQUACAgIAAcHBwD8/PwA+vr6AAMDAwACAgIAAwMDAAQEBAD///8A9/f3APb29gD5+fkA+vr6APb29gD8/PwA////AP7+/v8BAQEAAwMDAQAAAAD8/PwA/f39AP7+/gADAwMABQUFAAoKCgAICAgAAAAAAPr6+gD///8AAAAAAP///wACAgIABgYGAAQEBAAFBQUAAgICAP7+/gAAAAAA////AP39/QD8/PwA/v7+AAUFBQACAgIABAQEAAQEBAAAAAAA/f39AP7+/gD+/v4AAQEBAPz8/P/7+/sA+/v7AQICAgAEBAQAAgICAAgICAAMDAwACgoKAA8PDwAlJSUAOjo6AAkJCQDm5uYA/f39ACQkJAAlJSUACwsLAAICAgAEAAAAAP39/QD7+/sA/Pz8AAAAAAAGBgYABAQEAAMDAwD///8A/f39APf39wD19fUA8vLyAAgICAAGBgYAAwMDAP///wD+/v4C/v7+AP39/QD///8AAgICAAEBAQD9/f0A/v7+AP7+/gAEBAQABgYGAAMDAwD8/PwA+vr6APz8/AADAwMABQUFAAUFBQAEBAQACgoKAAYGBgD///8A/Pz8APz8/AD///8A/v7+AAICAgACAgIA/Pz8APLy8gDu7u4A8/PzAPb29gD8/PwA/f39AP///wABAQEBAgICAAEBAQD9/f0A+Pj4AAQEBAADAwMACgoKAAkJCQAICAgA/v7+APr6+gD5+fkA+/v7AAAAAAAFBQUAAQEBAP39/QABAQEABQUFAAUFBQD8/PwA+vr6APr6+gD7+/sAAAAAAAQEBAAHBwcABgYGAAMDAwAAAAAA/f39APv7+wD8/PwA/Pz8AAEBAQAAAAABAgICAAkJCQAHBwcACwsLAAYGBgAGBgYABQUFAPn5+QAAAAAADw8PACIiIgAUFBQAEBAQAPX19QAZGRkADQ0NAAEBAQD///8ABAoKCgAHBwcA+vr6AP7+/gD+/v4A/v7+APn5+QD9/f0A/Pz8AAMDAwAHBwcA+Pj4APr6+gD6+voAAgICAAUFBQACAgIAAAAA/gAAAAD///8C////AP///wD6+voAAQEBAAMDAwAHBwcABwcHAAUFBQABAQEA+Pj4APz8/AD9/f0AAAAAAAQEBAAKCgoABwcHAAQEBAD7+/sA9vb2APj4+AD///8ABAQEAAUFBQD7+/sA////APz8/AD4+PgA9PT0APf39wD///8ABQUFAAcHBwD///8A/////wICAgD9/f0B/Pz8AP39/QAAAAAACAgIAAUFBQAEBAQA/v7+APf39wD39/cA+/v7AAEBAQADAwMA/Pz8AP39/QD///8AAwMDAPr6+gD///8A/f39APj4+AD4+PgAAQEBAAgICAAHBwcABAQEAP7+/gD39/cA+vr6APv7+wAAAAAAAwMDAAMDAwAAAAAAAQEB/wYGBgASEhIBEhISABISEgAKCgoABAQEAPHx8QDi4uIA9/f3APHx8QD09PQAERERAP7+/gDt7e0A+Pj4AP7+/gAbGxsABQUFAAQUFBQA9/f3APj4+AD5+fkA+/v7APz8/AD8/PwA+vr6AP7+/gABAQEACQkJAAUFBQD5+fkA/Pz8AP7+/gD9/f0A/Pz8AP///wIAAAAAAgICAP///wD+/v4A/v7+AAYGBgAKCgoADg4OAAMDAwD+/v4A+vr6AP///wAAAAAAAgICAAAAAAD///8AAgICAAQEBAD///8A9/f3APPz8wD7+/sAAQEBAAMDAwADAwMA9PT0AAYGBgD4+PgA9fX1APz8/AABAQEABQUFAAICAgAEBAQAAgICAAAAAAH+/v4A+Pj4APv7+wD9/f0ABAQEAP///wD9/f0A+Pj4AP7+/gD6+voA+fn5AP7+/gAICAgABwcHAP39/QD9/f0AAAAAAP///wD5+fkA+vr6AP7+/gD7+/sA////AAcHBwAKCgoABgYGAP7+/gD+/v4A/f39AP39/QD+/v4ABgYGAAsLCwAICAgA/Pz8APv7+wEDAwMACgoKABEREQATExMACwsLAAICAgD+/v4ADAwMAP///wDt7e0A19fXAPT09ADt7e0A4ODgAAICAgD///8AExMTAAQEBAAEHBwc//7+/gDz8/MB9vb2APT09AD09PQA+fn5APv7+wD+/v4ABQUFAAQEBAAJCQkACAgIAP39/QD5+fkA+Pj4APr6+gD+/v7/AgICAAEBAQEBAQEA/f39AAICAgAHBwcACgoKAAcHBwD8/PwA+fn5APj4+AD6+voA/v7+AAICAgACAgIA////APj4+P/+/v4A/v7+APr6+v8AAAABAwMDAP7+/gD7+/sA9vb2AOzs7AD39/cA+/v7APj4+AAEBAQABwcHAP7+/gD+/v4AAgICAAUFBQACAgIA+vr6AAEBAQAAAAAAAAAAAP7+/gD5+fkA/v7+AP39/QAAAAAAAQEBAPz8/AD+/v4A/f39APz8/AD+/v4A/v7+AAICAgABAQEA+/v7AP39/QACAgIABgYGAAoKCgAKCgoABAQEAP39/QD///8ACAgIAAMDAwAAAAAA////AAEBAQADAwMAAAAAAPn5+QD+/v4AAAAAAPv7+wD7+/sA/v7+AP///wABAQEAEBAQAAMDAwD4+PgA9vb2ANLS0gDp6ekAAQEBAPPz8wAICAgA9/f3APT09AAEBAQABAcHBwAFBQUB////APj4+AD09PQA9PT0APj4+AD///8AAwMDAP///wD8/PwAAQEBAAUFBQABAQEA/f39AAICAgACAgIAAQEBAQMDAwAEBAQA////AP///wABAQEAAwMDAP7+/gD29vYA9/f3APf39wD7+/sA/v7+AAAAAAAAAAAAAAAAAAAAAAD4+PgB+Pj4//7+/gABAQEBBwcHAAQEBAD8/PwA+vr6AP///wD19fUA/Pz8AAQEBAAGBgYACgoKAAUFBQD5+fkA+Pj4AP39/QD///8A/v7+AP///wACAgIABQUFAAMDAwD///8A+fn5APz8/AD9/f0AAgICAAMDAwD9/f0A/f39AP///wD6+voAAQEBAAQEBAAFBQUAAgICAP7+/gD+/v4ABQUFAA0NDQASEhIABgYGAPf39wD7+/sAAgICAA4ODgAMDAwAAgICAAAAAAD39/cA9PT0APX19QD6+voAAQEBAAYGBgAICAgABQUFAAYGBgAGBgYABQUFAAUFBQAGBgYA+Pj4APv7+wD9/f0A/f39ABAQEAANDQ0ABQUFAAICAgDp6ekA+/v7AATn5+cB5+fn//Dw8AHy8vL/8/PzAfn5+QD+/v4AAwMDAAMDAwAGBgYAAwMDAAUFBQADAwMA/v7+AAAAAAACAgL/BwcHAQEBAf////8A/f39Af39/QAAAAAAAAAAAP7+/gD8/PwA+/v7APb29gD4+PgA/f39AAEBAQABAQEAAAAAAAEBAf8FBQUBAQEB//v7+wD9/f0AAwMD/wQEBAEJCQn//f39AQMDAwD+/v4ABgYGAAoKCgAKCgoACwsLAAgICAABAQEA8/PzAP7+/gD4+PgA/Pz8AP///wD9/f0AAwMDAAgICAD9/f0A+fn5APz8/AAAAAAABQUFAAQEBAABAQEAAQEBAAAAAAD9/f0A/v7+AAUFBQADAwMACAgIAAQEBAAEBAQA/f39AAYGBgAKCgoACAgIAAAAAAD7+/sA9/f3AAgICAACAgIAAwMDAP39/QD6+voA8/PzAPHx8QD4+PgACQkJABgYGAAWFhYAFhYWAA8PDwAREREABAQEAPT09ADu7u4A+Pj4AAUFBQAPDw8AHBwcABgYGAAJCQkA+/v7APPz8wDi4uIA3d3dACIiIgAE3t7eAOTk5AH8/PwA+fn5Afz8/AAAAAAAAwMDAAMDAwACAgIABAQEAAoKCgAGBgYA/v7+AP///wAEBAQACAgIAQEBAQACAgIB+fn5APn5+QD9/f0AAwMDAP7+/gD6+voAAgICAAAAAAD///8AAwMDAAEBAQABAQEAAAAAAAMDAwAGBgYBBwcHAAMDAwH7+/v/9/f3AP///wEAAAAAAAAAAQQEBAACAgIAAwMDAAsLCwAMDAwADAwMAAcHBwABAQEA+vr6AAQEBAAEBAQAAQEBAP7+/gD8/PwA/v7+AAQEBAADAwMAAAAAAAEBAQACAgIABAQEAAoKCgAHBwcA////AP39/QD8/PwA/Pz8AP39/QADAwMACAgIAAkJCQAFBQUABgYGAP7+/gACAgIAAQEBAPf39wD+/v4A+Pj4APz8/AD7+/sA9/f3AP///wD09PQA9PT0APn5+QAAAAAADQ0NABsbGwAsLCwAIiIiABgYGAAFBQUA/f39APT09ADy8vIA7OzsAPT09AAUFBQAGRkZABMTEwAJCQkA+Pj4APHx8QDr6+sA7OzsAPLy8gADAwMABOzs7P7u7u4AAQEBAPv7+wD///8AAQEBAAICAgABAQEAAQEBAAAAAAAAAAAAAAAAAP///wD///8AAAAAAAQEBAAFBQUAAgICAP///wACAgIAAAAAAAMDA//8/PwA+fn5APv7+wACAgIAAQEBAAMDAwAKCgoAAwMDAP7+/gABAQEAAQEBAP7+/gAAAAAAAAAAAAICAv/+/v4AAAAAAAMDAwAICAgABAQEAAYGBgAMDAwAEBAQAAsLCwACAgIA+vr6AAICAgD5+fkA+Pj4AAEBAQD+/v4A/f39AP7+/gABAQEAAwMDAAMDAwAFBQUAAwMDAAcHBwALCwsABQUFAAAAAAABAQEAAQEBAPr6+gD7+/sA////AAUFBQACAgIA/v7+AAAAAAAAAAAA/Pz8APr6+gD29vYAAAAAAP39/QACAgIA////APT09ADy8vIA9PT0APv7+wAJCQkAERERABwcHAAjIyMANDQ0ACwsLAAZGRkA+fn5AOvr6wDi4uIA////APj4+AD7+/sA/v7+AP39/QDw8PAA8PDwAPb29gD8/PwA/f39AA4ODgAICAgADAwMAAQCAgICAQEB//39/QH8/Pz/////AQEBAf4FBQUCAAAAAAAAAAD7+/sA8/PzAAMDAwACAgIA/Pz8//39/QEAAAD/AQEBAQMDA/8CAgIABwcHAfv7+/////8B//////7+/gH+/v4AAgICAAUFBQAGBgYACAgIAAMDAwD8/Pz+////Avz8/P/6+voBAgIC/wQEBAAJCQkBAgIC/wcHBwEICAj/BwcHAQQEBP4HBwcBCgoKAAsLCwAODg4ABAQEAPr6+gAHBwcA////APn5+QDy8vIA/v7+APz8/AD+/v4AAgICAAMDAwAGBgYABQUFAP///wADAwMA/v7+APb29gABAQEABgYGAAUFBQADAwP//v7+Af///wD9/f0A9vb2AP39/QD+/v4AAAAAAP///wD///8AAgICAAQEBP8FBQUBBgYGAP///wD7+/sA+Pj4AP39/QAKCgoAEhISABAQEAAJCQkAAgICAAMDAwAICAgADAwMAP7+/gD5+fkA8vLyAPLy8gD7+/sA/v7+APr6+gDt7e0A+/v7AAcHBwAJCQn/ExMTAQ4ODgAMDAwAAwMDABMTEwAEBwcH/wgICAEAAAAACQkJAf///wACAgICAgICAAEBAQD+/v4A+Pj4AP39/QAEBAQABQUFAAEBAQH///8A/v7+Afv7+wABAQEBAgICAAQEBAD///8A+/v7AAAAAAEBAQEAAQEBAAMDAwADAwMABAQEAAQEBAABAQEABAQEAgUFBQD9/f0B9vb2AP///wEGBgb/CAgIAAQEBAEFBQUABgYGAQMDAwAAAAAB/f39APv7+wD+/v4ACQkJAA0NDQD+/v4A9fX1AP39/QDz8/MAAAAAAP39/QD8/PwA/v7+AAcHBwAEBAQACAgIAP7+/gD///8A/f39APPz8wD09PQAAAAAAAkJCQAGBgYAAAAAAf39/QAAAAAA/Pz8APj4+AD7+/sAAgICAAMDAwAEBAQABAQEAAMDAwACAgIBAwMDAAcHBwD+/v4A9vb2AAEBAQAHBwcACgoKAAcHBwD9/f0A6urqAPf39wALCwsACAgIAPT09ADv7+8A2NjYAN7e3gDm5uYA+/v7AAUFBQAAAAAA+Pj4AAsLCwAVFRUAIiIiARcXFwAQEBAADAwMAAYGBgACAgIABAEBAQEGBgb/CQkJAQUFBQACAgIAAgICAP39/QD39/cA8vLyAPr6+gAAAAAAAwMDAP7+/gACAgIAAAAAAP///wD9/f0A/f39/wICAgADAwMBAwMDAAEBAQAEBAQA////AAEBAQD+/v4AAAAAAP7+/gD///8ABAQEAAUFBQAJCQkA////AAICAgD7+/v/AQEBAPv7+wD+/v7/AAAAAQICAgAAAAAAAAAAAPv7+wD+/v4ABgYGAA8PDwAJCQkA/v7+APj4+AD39/cA+/v7AAAAAAACAgIAAgICAAAAAAABAQEA/v7+APj4+AD9/f0AAgICAAEBAQADAwMAAgICAP///wD///8A/Pz8APz8/AD+/v4AAAAAAP39/QD5+fkA/f39AAYGBgACAgIABQUFAAUFBQD///8A+vr6AAICAgAGBgYAAwMDAAQEBAD+/v4AAgICAP7+/gD4+PgA/Pz8APn5+QDv7+8ABAQEAP///wDo6OgA9vb2AOTk5ADv7+8ABQUFABgYGAAMDGyhdwMAACAASURBVAwACAgIAAYGBgAWFhYAICAgACgoKAAREREABgYGAAQEBAABAQEAAQEBAAQBAQH/BAQEAQcHBwAGBgYABQUFAAICAgD6+voA+fn5APz8/AD7+/sABAQEAAEBAQABAQEAAQEBAAEBAQAAAAAA////AP39/QH///8A////AAUFBQAEBAQAAwMDAAMDAwD///8A+fn5APz8/AACAgIAAAAAAAICAgABAQEA+vr6AP39/QD+/v4AAAAAAfz8/P/7+/sAAAAAAQYGBgD7+/sABAQEAP///wD7+/sAAQEBAPz8/AAICAgA/v7+APn5+QDr6+sA6+vrAPLy8gD4+PgA////AAQEBAABAQEABAQEAPz8/AD39/cA+fn5AAkJCQAPDw8ADw8PAAgICAD9/f0AAgICAPz8/AAAAAAA/Pz8AAAAAAD+/v4AAwMDAAICAgAKCgoACQkJAAgICAACAgIA+Pj4APj4+AD+/v4ABQUFAAgICAABAQEAAgICAAQEBAABAQEA/v7+AP///wD9/f0A+fn5AOXl5QAEBAQA+fn5AAgICAAJCQkACQkJAAcHBwAPDw8ACgoKAPv7+wDz8/MA/Pz8APj4+AD9/f0A////APn5+QD29vYABAQEAAYGBgAEAAAAAf39/QD29vYA9vb2AAQEBAAEBAQA/Pz8APX19QD6+voAAAAAAAMDAwAGBgYACAgIAAMDAwD///8A/f39APv7+wABAQH+/f39AAUFBQIICAgACAgIAAMDAwABAQEA/f39AAICAgD+/v4A////AAEBAQD7+/sA/f39APv7+wD9/f0AAgICAAMDAwD9/f0A/f39AAAAAAD9/f0A+Pj4AP7+/gD7+/sA+fn5AAEBAQD+/v4ADQ0NAP///wD19fUA6OjoAO3t7QD39/cA+vr6AAEBAQAGBgb/BwcHAAkJCQH+/v4A9vb2AP///wADAwMACAgIAAkJCQAGBgYA+/v7AP39/QAAAAAA/v7+AAICAgD9/f0A/v7+AAQEBAACAgIACQkJAAsLCwAEBAQA/v7+AAAAAAADAwMA////APj4+AD///8A/v7+AAAAAAABAQEAAgICAP///wD7+/sA/f39AAEBAQD+/v7//f39AAMDAwEODg4ABQUFAP7+/gABAQEABQUFAP///wD29vYA5+fnAPb29gD09PQAAwMDABgYGAD29vYA7u7uAAwMDAAiIiIABP39/QD5+fn/9vb2APv7+wACAgIABQUFAP///wD39/cA/Pz8AAICAgAEBAQABwcHAAgICAAAAAAA+/v7AAEBAQACAgIAAQEBAQMDAwAFBQX/CAgIAAYGBv8AAAAA+/v7APv7+wABAQEACAgIAAEBAQD5+fkA+Pj4APv7+wD///8ABAQEAAMDAwAAAAAAAQEBAAUFBf8EBAQABQUFAAAAAAD4+PgA+/v7APn5+QD+/v4ABQUFAO/v7wACAgIA+Pj4APf39wD+/v4AAwMDAAgICAAEBAQACAgIAQUFBQAFBQUA/v7+AAoKCgAGBgYADAwMAAYGBgD+/v4A+/v7APr6+gD7+/sA+/v7AP39/QD///8A////AAAAAAADAwMABQUFAAYGBgAEBAQAAQEBAP7+/gAAAAAABQUFAP7+/gD9/f0A9/f3AAICAgAEBAQA////AP7+/gD5+fkA+vr6AP39/QAGBgYAAAAAAfz8/AD4+PgA8fHxAPr6+gDy8vIA+fn5AAcHBwAICAgA+/v7APLy8gABAQEA8/PzAN/f3wDi4uIA4ODgAOPj4wAQEBAARUVFAAT5+fkA+Pj4APz8/AD7+/sAAgICAP7+/gABAQEA////AAAAAAABAQEA////APz8/AD39/cA+/v7APr6+gD///8A////AP7+/v8CAgIAAQEBAQEBAQAAAAAA/Pz8APn5+QD8/PwABwcHAAkJCQAFBQUAAQEBAPb29gD6+voABQUFAAUFBQABAQEA/f39AAEBAQAGBgYABwcHAAUFBQD9/f0A/v7+AP39/QD+/v4A+vr6APn5+QDv7+8AAQEBAAQEBAAKCgoACgoKAAUFBQAJCQkACQkJAAAAAP/19fUA9PT0Afv7+wAICAgA/v7+AAQEBAD7+/sA+vr6APb29gD4+PgA/f39AP///wAAAAAA////AP39/QD///8AAwMDAAQEBAACAgIA/v7+AP7+/gD8/PwAAAAAAAQEBAAAAAAA////AP7+/gD///8A/v7+APv7+wAAAAAA+Pj4APf39wD+/v4A/f39APT09P/p6ekA/f39AQMDAwD09PQA9PT0AP7+/gAMDAwADAwMAAcHBwANDQ0AGRkZABMTEwDu7u4A4uLiANfX1wDk5OQADAwMABcXFwAE+fn5APr6+gACAgIAAwMDAAICAgADAwMAAwMDAAEBAQAAAAAA/f39APj4+AD///8ABQUFAPz8/AD6+voA/f39AP///wABAQEBBwcHAAAAAAADAwMABAQEAAAAAAACAgIAAwMDAAMDAwAFBQUABQUFAAQEBAAAAAAA/Pz8AP7+/gD///8AAQEBAAEBAQADAwMAAAAAAP///wD8/PwA/f39AP///wAEBAQACAgIAAICAgD+/v4A9vb2AAMDAwANDQ0ACgoKAAoKCgAPDw8AGRkZABMTEwD9/f0B5eXlAODg4ADy8vIA/v7+APz8/AD7+/sA/Pz8AP39/QD7+/sA+Pj4AP///wAGBgYAAgICAP7+/gD7+/sA/f39AAICAgD///8A/Pz8AP39/QD6+voA////AAEBAQAEBAQABAQEAAEBAQD+/v4A+/v7AP39/QD9/f0AAQEBAP7+/gACAgIAAwMDAAMDAwD6+voB7+/vAPb29gADAwMA/f39AAAAAAAKCgoAAQEBAPj4+AD9/f0ACQkJAP///wDy8vIA4+PjANzc3ADj4+MA8fHxAPb29gDs7OwABAMDAwAEBAQABAQEAP39/QAAAAAA////AAAAAAACAgIABgYGAPr6+gD7+/sA+/v7AAUFBQAHBwcAAwMDAPj4+AD8/PwAAAAA/wEBAQADAwMBBAQEAAcHBwADAwMA/f39APn5+QD+/v4A+fn5APv7+wD4+PgA/v7+AP///wD5+fkA+vr6AAMDAwAFBQUABQUFAAICAgD7+/sA////AAAAAAAAAAAAAAAAAAICAgAGBgYA/f39APz8/AD39/cABQUFAAICAgADAwMA/f39AAgICAAVFRUABAQE//39/QDy8vIB/v7+AP39/QD8/PwA+vr6AAEBAQAEBAQACAgIAP///wD9/f0AAgICAAEBAQABAQEACAgIAAICAgAFBQUAAQEBAPj4+AD9/f0A/f39AAAAAAADAwMA/f39AP39/QAAAAAA/v7+AP39/QAAAAAAAAAAAP39/QD+/v4ABgYGAAsLCwAFBQUA/v7+//39/QD7+/sBAgICAAoKCgAFBQUABQUFAAEBAQD9/f0AAgICAPb29gDg4OAA9vb2AOjo6ADr6+sA9/f3AAcHBwALCwsABgYGAAQNDQ0A9/f3AAEBAQD4+PgA9/f3APv7+wACAgIABgYGAAQEBAAAAAAA////AAMDAwAFBQUACAgIAP7+/gAEBAQA+fn5AAAAAAEICAgABgYGAAICAgD+/v4AAAAAAP///wD9/f0A+Pj4APr6+gABAQEA+vr6AP39/QAEBAQAAAAAAP///wAAAAAA/v7+APr6+gD6+voA/v7+AP7+/gAEBAQABwcHAAEBAQD///8AAgICAAMDAwD7+/sA+/v7APf39wD8/PwA9vb2APf39wAICAgABgYGAA8PDwH9/f0ABwcHAAkJCQD29vYA+fn5AAICAgD///8AAwMDAAcHBwAHBwcA+vr6APr6+gD6+voAAwMDAA0NDQAKCgoABAQEAPf39wDu7u4A/f39AAQEBAAAAAAA/f39APz8/AD39/cA/Pz8AP///wAAAAAABgYGAAMDAwD9/f0ABAQEAAkJCQALCwsAAgICAPb29gH8/PwABgYGAAcHBwAODg4AAQEBAPf39wD5+fkAAgICAP///wDx8fEA8/PzAO3t7QDw8PAA+vr6AAMDAwAMDAwADg4OAAoKCgAEDw8PAPr6+gACAgIA9PT0AP7+/gD19fUA/Pz8AAQEBAABAQEABAQEAP///wD///8A/Pz8APr6+gD///8A/v7+AAICAgAEBAQABgYGAAEBAQD6+voA+/v7AP///wD5+fkA9/f3APz8/AACAgIAAwMDAP///wADAwMAAQEBAAQEBAD9/f0A/f39APv7+wD+/v4A/v7+AP///wABAQEA/v7+AAAAAAADAwMAAgICAAEBAQD8/PwA/Pz8AAICAgAAAAAAAAAAAPb29gD4+PgAAgICAPf39wAQEBAA////APv7+wACAgIACAgIAAAAAAAGBgYA/f39AAMDAwACAgIA/v7+AAAAAAD///8AAgICAAQEBAAKCgoACAgIAAEBAQD///8ADw8PAPz8/AACAgIA/v7+APv7+wD9/f0A+vr6AP7+/gD7+/sA////APv7+wD///8ABQUFAAsLCwAKCgoAAwMDAPr6+gD4+PgA/Pz8AAkJCQAFBQUAAQEBAPr6+gD19fUA+/v7AAQEBAD8/PwA/f39APLy8gDw8PAA9vb2AP///wADAwMAAgICAAQEBAADAwMABAYGBgAJCQkABQUFAAICAgD8/PwA/f39AP///wAICAgABwcHAP///wACAgIA+fn5APb29gD29vYAAAAAAAEBAQADAwMABwcHAAICAgD8/PwA+/v7AAEBAQD///8A+Pj4APr6+gD9/f0ABgYGAAAAAAABAQEA////AP///wD+/v4A/f39AP39/QD9/f0AAAAAAAICAgACAgIAAgICAAAAAAD9/f0A////AAYGBgD+/v4A/Pz8AP7+/gAEBAQADg4OAAsLCwD39/cA+Pj4APn5+QDu7u4A/f39AAYGBgD8/PwA/f39AAMDAwALCwsACgoKAPz8/AD8/PwA+/v7APv7+wD7+/sAAQEBAAkJCQAGBgYAAwMDAPn5+QD9/f0AAgICAA0NDQAAAAAA+vr6APz8/AADAwMA////AAUFBQAEBAQA+vr6APv7+wD///8A////AAEBAQABAQEA////APv7+wD8/PwAAgICAAgICAAJCQkABAQEAPb29gDy8vIA9PT0AAYGBgADAwMA+vr6APr6+gABAQEACQkJAP39/QD///8ACwsLAAoKCgAICAgABgYGAAQBAQEAAgICAAICAgADAwP/AwMDAQUFBQAEBAQADQ0NAAkJCQD9/f0A9vb2AP39/QD7+/sA/v7+AAMDAwACAgIAAwMDAAQEBAAAAAAA+fn5APv7+wABAQEAAAAAAPn5+QD6+voAAAAAAP7+/gD+/v4A/v7+APr6+gD8/PwA/Pz8AAAAAP8FBQUBCwsLAAICAgABAQEAAwMDAAEBAQD9/f3/+/v7AQEBAQACAgIA/v7+AP7+/gADAwMADg4OABoaGgATExMA9/f3APHx8QD6+voABgYGAAMDAwD///8A+fn5APX19QD9/f0ABwcHAAcHBwABAQEA/f39AP7+/gD8/PwA+Pj4AP7+/gADAwMACAgIAAYGBv/4+PgB+Pj4AAICAgAICAgABgYGAAMDAwD29vb/9/f3Afr6+gD+/v4A////AAUFBQADAwMA////AAICAgABAQEA+vr6AP7+/gABAQEA////AAEBAQAEBAQABAQEAP7+/gD5+fkA9/f3APz8/AAGBgYAAAAAAP7+/gD+/v4AAAAAAAMDAwAFBQUAAgICAAwMDP8REREBDw8PAAcHBwAE/Pz8APn5+QD9/f0A+fn5Afr6+gD8/PwABAQEAAMDAwACAgIA/Pz8AAAAAAAEBAQACQkJAAYGBgAFBQUA/v7+AP///wABAQEA/v7+APf39wD6+voAAwMDAAICAgD+/v4AAAAAAAEBAQD///8A/v7+AP39/QD+/v4A/v7+AP///wAGBgYBDAwMAAoKCgD///8A+fn5AP39/QAAAAAABQUFAQUFBQAAAAAA/v7+AP39/QACAgIACAgIAAwMDAAPDw8AERERAAgICAD///8A8/PzAAICAgD9/f0A+/v7APT09ADy8vIAAAAAAP39/QD6+voA+Pj4APf39wD8/PwA+/v7APj4+AD8/PwACgoKAAsLCwAQEBAB9fX1AP39/QD5+fkAAAAAAAYGBgAEBAQA+vr6Afn5+QDz8/MA/v7+AAUFBQAICAgABgYGAAICAgAAAAAA////AP39/QD6+voAAAAAAP///wABAQEA/v7+AAQEBAAHBwcAAAAAAAcHBwAAAAAA/v7+APf39wD///8A/f39APr6+gD7+/sAAwMDAAcHBwAFBQUBAQEBAP39/QD7+/sABPb29v7z8/MABQUFAfv7+//7+/sB/v7+//z8/AH29vb/9/f3Afn5+f/+/v4BAQEB/woKCgENDQ3/BwcHAfr6+v/4+PgB+Pj4//v7+wD5+fkB/Pz8/////wEEBAT/AQEBAQUFBf8BAQEBAwMD/wQEBAEFBQX/BgYGAf39/f////8BCAgI/wwMDAEEBAT/9/f3APn5+QD6+voAAwMDAQoKCv8JCQkB//////b29gEBAQH/CAgIAQsLC/8HBwcB//////n5+QH4+Pj/+fn5Afn5+f/+/v4B8vLy//z8/AD09PQB9vb2/wAAAAHz8/P/BAQEAfz8/P/7+/sB/Pz8//39/QH7+/v/BAQEAQgICP8LCwsBCgoK//v7+wH/////+/v7APz8/AADAwMABQUFAQMDA//9/f0B/f39/wAAAAEAAAD/////Af/////+/v4BAQEB/wAAAAEBAQH/AAAAAQEBAf////8B//////z8/AD29vYB+/v7/wMDAwEAAAD/////AfLy8v/7+/sBBwcH/wQEBAH8/Pz/AwMDAQ4ODv8HBwcB/Pz8//Dw8AHx8fH/6urqAAQAAAACAAAA//39/QD+/v4BAgICAAUFBQECAgIA+fn5Afr6+gD6+voBAwMDAAkJCQEEBAQAAwMDAQQEBAABAQEB/v7+APj4+AH+/v4ABAQEAAUFBQEBAQEA////Af///wABAQEBAgICAAMDAwEHBwcACQkJAQEBAQD+/v4BAgICAAMDAwEAAAAA9/f3Aff39wD8/PwAAQEBAAUFBQAEBAQBAwMDAPz8/AEBAQEABgYGAQcHBwAHBwcB/Pz8AO/v7wH29vYA9/f3Aff39wD9/f0B+/v7APb29gH4+PgA/Pz8AP///wEBAQEAAAAAAQkJCQAPDw8B/v7+APX19QH6+voA////AQQEBAAGBgYB9fX1APf39wHz8/MA8fHxAfn5+QACAgIACAgIAAcHBwD7+/sB/f39AAICAgECAgIAAAAAAfj4+AABAQEBAgICAAQEBAEEBAQAAgICAQEBAQACAgIB////AP///wECAgIAAwMDAP39/QH4+PgA////Afv7+wD4+PgB/Pz8AAAAAAEBAQEABQUFAQkJCQANDQ0BAAAAAPT09AHz8/MA/Pz8Ae/v7wAEBwcHAAcHBwD///8A/v7+AAYGBgAHBwcA////APr6+gD5+fkA+/v7AAYGBgADAwMABAQEAAAAAAD9/f0AAAAAAAMDAwAGBgYAAQEBAAEBAQADAwMA////APr6+gD8/PwA/f39APr6+gD8/PwABwcHAAoKCgAJCQkA////AP///wD6+voA9PT0APT09AD6+voABQUFAAYGBgAICAgAAwMDAPz8/AD+/v4ABwcHAAMDAwADAwMA/v7+APX19QD6+voAAQEBAP39/QACAgIACQkJAAUFBQABAQEA////AAkJCQAKCgoACQkJAA0NDQAhISEAGRkZAP39/QDr6+sA8PDwAPT09ADx8fEA9PT0AOrq6gD///8A+vr6APr6+gD+/v4A+vr6APPz8wD29vYA9PT0AP///wAFBQUAAwMDAPr6+gD4+PgA/v7+AAQEBAAGBgYABgYGAAUFBQAAAAAA////AP7+/gACAgIABgYGAAkJCQD5+fkA9PT0APj4+AD+/v4AAQEBAAsLCwAHBwcABQUFAAYGBgAHBwcA////APn5+QD4+PgA+Pj4AP///wD+/v4ABAEBAQD///8A////AP///wABAQEAAQEBAP///wD///8A/v7+AP///wABAQEABQUFAAgICAAEBAQA+vr6APz8/P////8BAwMDAAAAAAD///8AAQEB/////wEEBAQAAgICAPv7+wD6+voA+/v7APn5+QD8/PwAAAAAAP///wD5+fkA9/f3APr6+gABAQEABQUFAAUFBQAFBQUAAwMDAP7+/gD9/f0AAQEBAAYGBgAAAAAA/Pz8AP7+/gADAwMA/f39AP///wD///8ACAgIAAICAv8CAgIBCgoKAAYGBgAKCgoADg4O/xAQEAEcHBwAMjIyACIiIgD9/f0A4+PjAN/f3wDg4OAA+/v7APT09AAAAAAACgoKAAsLCwAGBgYA9vb2AP///wD6+voAAgICAAAAAAAJCQkAAAAAAAEBAQAAAAAA+/v7AAAAAAAAAAAA/f39APz8/AAAAAAAAwMDAAAAAP/+/v4BAgICAAMDAwAFBQUA/Pz8//7+/gH8/PwA/v7+AAgICAAJCQkACAgIAAMDAwD///8A+/v7APv7+wD8/PwAAgICAAkJCQD///8ABgYGAAT19fUA8/PzAP39/QD5+fkA/v7+AAICAgADAwMA/v7+AAEBAQADAwMACAgIAAsLCwALCwsA/Pz8APT09AD39/cBAQEBAAMDAwD+/v4A+/v7APn5+QH8/PwABAQEAAUFBQABAQEABAQEAP39/QAAAAAA+fn5AAAAAAD6+voA9vb2AP39/QABAQEABQUFAAEBAQAAAAAA/v7+APr6+gABAQEAAwMDAAYGBgAAAAAA+Pj4APr6+gAFBQUABAQEAAEBAQD9/f0AAAAAAP7+/gD8/PwBBQUFAAQEBAAEBAQABAQEAP7+/gH///8ABwcHABISEgAYGBgA////APPz8wD+/v4A9PT0APf39wAAAAAADAwMABMTEwACAgIA7u7uAP39/QD4+PgA/f39AAYGBgAGBgYACwsLAAAAAAD9/f0ABAQEAAEBAQD6+voA////AP///wD///8A////AAAAAAACAgIBAgICAAMDAwABAQEA////AAAAAAECAgIABQUFAAEBAQAHBwcAAgICAP39/QD8/PwA////AP///wD+/v4AAgICAAcHBwAFBQUA/Pz8AAUFBQAE9PT0APLy8v/+/v4B/Pz8AP7+/gAEBAQABgYGAAMDAwAGBgYAAgICAAoKCgAJCQkABAQEAPv7+wD9/f0A/Pz8AAAAAAD9/f3//v7+APn5+QH6+voA////AP///wD+/v4AAAAAAP39/QABAQEAAAAAAPr6+gD+/v4A+/v7APz8/AD9/f0A////AP////8BAQEBAQEBAAMDA/8GBgYBBwcHAAkJCQACAgIA9vb2APz8/AD///8AAwMDAAMDAwD9/f0A/v7+AAEBAQD8/PwA9/f3APz8/AD9/f3/+/v7AP39/QEBAQEA8PDwAAMDAwAaGhoA////APr6+gDX19cA0tLSAOLi4gDx8fEA/Pz8AP7+/gAHBwcAAgICAPn5+f8CAgIBCAgIAAICAv8EBAQBCgoKAAYGBgD///8A+/v7AAUFBQAAAAAA+vr6AAAAAAD+/v4A/v7+AP///wACAgIAAQEBAP7+/gD7+/v/9vb2AP7+/gH9/f0ABwcHAAYGBgAEBAQAAQEBAP7+/gD6+voAAgICAAUFBQAAAAAA+vr6AP39/QABAQEA////AP39/f/+/v4BBPn5+QD7+/sBBAQEAAQEBAAAAAAAAwMDAAUFBQAFBQUAAAAAAAMDAwAJCQkAAAAAAPr6+gD5+fkA/v7+AAICAgABAQEA/v7+Afz8/AD8/PwAAwMDAAQEBAD///8A+fn5APz8/AAAAAAABAQEAPn5+QABAQEABwcHAAEBAQACAgIA/Pz8APr6+gD9/f0BAgICAAcHBwAEBAQBCAgIAAsLCwAKCgoA/v7+APn5+QACAgIAAAAAAAAAAAD7+/sA+vr6APz8/AAEBAQAAQEBAPf39wD29vYA+vr6Afn5+QD8/PwA////APHx8QD9/f0AAQEBANvb2wD4+PgA4uLiAOTk5AD19fUA/v7+AAAAAAD///8A////AAEBAQD7+/sB////AAMDAwAEBAQBBgYGAA4ODgAODg4AAQEBAPz8/AD09PQACQkJAPj4+AD+/v4A/f39APn5+QD29vYA/Pz8AP39/QD8/PwA/Pz8AQEBAQD39/cABQUFAAoKCgAJCQkABAQEAPv7+wD09PQA/f39AAICAgAGBgYAAQEBAPv7+wD4+PgA+fn5AAICAgD///8B/f39AAQDAwMABgYGAAYGBgAAAAAAAAAAAAICAgACAgIAAQEBAAEBAQABAQEA+vr6APLy8gD///8A+vr6AP39/QACAgIAAQEBAPz8/P/9/f0AAAAAAQEBAQAAAAAA/v7+AP///wABAQEAAQEBAAEBAQD7+/sA////AP///wAHBwcA/Pz8APv7+wADAwMACAgIAAUFBQAEBAQAAQEBAP7+/gD5+fkAAgICAP///wD9/f0AAAAAAAAAAAD5+fkA/Pz8APr6+gABAQEACwsLAP7+/gD9/f0A+vr6APn5+f/7+/sAAQEBAQMDAwD+/v4A8/PzAOHh4QDv7+8A/f39AO/v7wD4+PgAAQEBAAcHBwD+/v4AAAAAAP7+/gADAwMAAgICAPv7+wD7+/sACAgIAA4ODgATExMADg4OAAEBAQABAQEA+Pj4AAoKCgDv7+8A9fX1APj4+AADAwMAAAAAAPr6+gD8/PwAAAAAo+tFvQAAIABJREFUAAAAAP8AAAAA+/v7Af///wAGBgYAAAAAAAEBAQD///8A/f39APv7+wD+/v4AAwMDAAEBAQD4+PgA+fn5AAEBAQAGBgYAAwMDAAMDAwAECQkJAAgICAABAQEA/f39AP39/QD8/PwAAAAAAAEBAQACAgIAAAAAAAAAAAAAAAAA/v7+AP///wADAwMABwcHAAAAAAD6+voB+vr6AP///wD+/v4A+vr6AAEBAQADAwMABAQEAAQEBAAEBAQA////AP7+/gABAQEAAgICAAQEBAD///8ABQUFAAkJCQADAwMA/v7+APn5+QD29vYAAQEBAAcHBwABAQEA+fn5AP39/QAAAAAA/f39APn5+QD///8ABQUFAAEBAQABAQEA////AAEBAQADAwMB/f39AP7+/gABAQEABgYGAAMDAwD+/v4A/f39AAQEBAAMDAwAAAAAAPz8/AAAAAAA+fn5APz8/AAAAAAAAwMDAAICAgD6+voA9/f3AAQEBAAJCQkADg4OAA4ODgADAwMA/v7+AAEBAQACAgIA+Pj4APLy8gD6+voA/f39APv7+wD+/v4ABAQEAAcHBwAFBQUBAQEBAPv7+wD6+voA9fX1AP///wAGBgYA/Pz8AP39/QABAQEA////APn5+QD+/v4A+/v7AP///wACAgIAAwMDAAcHBwAEBAQABAkJCQAEBAQA+fn5APv7+wD7+/sA////AAEBAQABAQEAAgICAP///wD9/f0A////AAICAgADAwMAAQEBAP7+/gAAAAAA/v7+//7+/gABAQEBAQEBAAMDAwAEBAQAAAAAAP7+/gADAwMADQ0NAAkJCQAAAAAAAAAAAAICAgAAAAAA+/v7APv7+wD8/PwA/Pz8AP39/QD5+fkA+Pj4AP39/QD39/cAAAAAAP7+/gACAgIABAQEAAAAAAAGBgYABAQEAAcHBwAFBQUAAAAAAAMDAwABAQEAAgIC/wICAgD+/v4BAwMDAAAAAAD9/f0A+vr6AP7+/gAJCQkADAwMABMTEwD///8A+/v7APPz8wD29vYA/Pz8AP///wD39/cA9PT0APT09AABAQEA9vb2APr6+gD+/v4A////APr6+gDy8vIA6+vrAOnp6QD29vYAAAAAAAEBAQADAwMADg4OAAsLCwAHBwcAAAAA//39/QD19fUB/f39APr6+gD09PQAAgICAAICAgAGBgYABwcHAAICAgD9/f0A+fn5AAMDAwABAQEAAQEBAAICAgADAwMAAgICAAQFBQUAAgICAAEBAQABAQEABgYGAAICAgACAgIA////AP7+/gD7+/sA/v7+AAEBAQAFBQUABwcHAAUFBQAEBAQAAAAAAAAAAAEHBwcAAgICAAAAAAD+/v4AAgICAPn5+QD7+/sAAQEBAAgICAAWFhYABQUFAPX19QD4+PgA/v7+AP///wD7+/sA/f39AAAAAAD+/v4AAAAAAAAAAAD///8A+/v7AAICAgACAgIABAQEAAMDAwACAgIABQUFAAkJCQAEBAQA+/v7APz8/AACAgIAAQEBAAICAgEEBAQA////AP39/QD7+/sA/f39AP///wACAgIAAQEBAA0NDQALCwsABwcHAAAAAAALCwsA9PT0APHx8QDx8fEA9fX1APj4+AACAgIAAQEBAPX19QDs7OwA9/f3AAEBAQADAwMA+/v7AAMDAwAHBwcA/Pz8AAAAAAAAAAAABgYGAA8PDwAPDw8A/v7+APHx8QH7+/sAAAAAAAMDAwAGBgYAAAAAAP///wACAgIABgYGAAgICAAAAAAA9vb2AP7+/gABAQEABAQEAAAAAAD+/v4A+/v7AP39/QAEAAAAAAICAgAFBQUBBAQEAAcHBwAGBgYAAAAAAPn5+QD5+fkAAQEBAAICAgAGBgYACQkJAAYGBgADAwMABQUFAAICAgD+/v7/////AAICAgH6+vr/9vb2Af39/QD9/f0A/Pz8AAICAgD9/f0AAgICAAQEBAD///8A9vb2APz8/AACAgIABQUFAAcHB/8AAAAA+vr6Af////8CAgIBAwMDAAMDAwAFBQX/BQUFAAICAgD///8AAgICAAgICAAICAgA/v7+AP7+/gD+/v4ABAQEAAQEBAACAgIAAgICAPv7+wD4+PgA/f39AAAAAAD+/v4A9PT0APz8/ADz8/MACQkJAAgICAAHBwcABAQEAAYGBgAMDAwAAgICAAoKCgD+/v4AAgICAP///wD+/v4A7e3tAPX19QAQEBAAGhoaABEREQAdHR0A4+PjAOfn5wDy8vIA+fn5AAcHBwAREREADAwMAPf39wABAQEAAAAAAAUFBQACAgIA/f39AP39/QD9/f0AAwMDAAMDAwAAAAAA+vr6APX19QD39/cAAwMDAAQEBAAAAAAA/Pz8APv7+wD5+fkABP///wAAAAABAQEBAAICAgAHBwcACQkJAPz8/AD5+fkA////AAQEBAAHBwcACQkJAAkJCQAAAAAAAAAAAAUFBQAFBQUA/v7+Af39/QAAAAAA/f39AQEBAQD+/v4A/v7+AP///wD8/PwA8/PzAOzs7AAICAgA9vb2APf39wD///8ACgoKAAkJCQAFBQUB+/v7APv7+wD///8BAgICAAICAgAEBAQACAgIAQYGBv/8/PwA+vr6AP///wAAAAAA/v7+AP7+/gAAAAAABQUFAAkJCQAGBgYABAQEAAMDAwD5+fkABQUFAAYGBgACAgIAAwMDAP///wD39/cA9fX1AAAAAAD///8ACQkJABkZGQAWFhYAGBgYAAwMDAAODg4AAgICAPDw8ADo6OgA5+fnAAAAAAAUFBQAJCQkACoqKgAWFhYA9vb2ANvb2wDW1tYA5eXlAO7u7gD+/v4A/f39APr6+gD+/v4ACgoKAAYGBgD9/f0A+/v7APb29gD29vYA/Pz8AP7+/gACAgIA/f39APn5+QD5+fkA+/v7AP7+/gD///8AAgICAP7+/gAAAAAA/f39AAT7+/sA/Pz8//v7+wH///8AAwMDAAICAgD7+/sA+fn5APv7+wAEBAQABAQEAAcHBwAFBQUA/f39APr6+gD8/Pz/9/f3Afn5+f/9/f0AAwMDAQEBAf////8B////AP///wAAAAAA/v7+APX19QACAgIACAgIAP39/QD6+voAAwMDAAAAAAACAgIAAAAA/////wH9/f0A/v7+/wEBAQECAgIAAgICAAAAAAD///8A/f39APv7+wABAQEAAgICAAICAgAEBAQADQ0NAAcHBwAKCgoAAQEBAP39/QAAAAAABAQEAAkJCQD9/f0A/f39APv7+wD6+voA/f39AP7+/gD8/PwA/f39AAYGBgASEhIALCwsACUlJQAWFhYAERERAAAAAADj4+MA3t7eAOLi4gACAgIAHR0dACMjIwAdHR0ACQkJAO/v7wDw8PAAERERAO/v7wDt7e0A9PT0APv7+wD29vYAAwMDAAICAgAEBAQAAAAAAPv7+wD9/f0A/f39AP39/QD6+voA+fn5AAQEBAABAQEAAQEBAAUFBQAAAAAA/v7+AP///wABAQEABAQEAAMDAwAE+vr6APn5+QH7+/sA/f39AP///wD+/v4A/f39APr6+gD///8AAAAAAP///wD7+/sA////APr6+gD4+PgA/Pz8Af39/QD7+/sB////AAgICAAFBQUB/Pz8APr6+gD9/f0A////AP///wD9/f0A+/v7AAICAgD///8AAAAAAP///wD8/PwA+fn5AAMDAwH5+fkA+/v7AP39/QH9/f0A////AAEBAQD8/PwA/v7+APz8/AD9/f0A////AAAAAAACAgIABAQEAAYGBgAICAgABQUFAP7+/gD39/cA+fn5AAEBAQAFBQUA////APn5+QD39/cA/Pz8AAEBAQACAgIABQUFAAYGBgAPDw8AGBgYACQkJAArKysAEBAQAAoKCgAAAAAACAgIAAcHBwAREREABgYGABcXFwASEhIACAgIAPv7+wD29vYA+Pj4APn5+QD39/cA9fX1APLy8gAEBAQABgYGAAYGBgAEBAQAAQEBAPz8/AD5+fkA+vr6AAEBAQAGBgYA9/f3APj4+AAGBgYACAgIAAkJCQD+/v4A+/v7AP39/QD+/v4AAAAAAP///wABAQEABPr6+gD8/Pz/////AQEBAf/+/v4B+fn5//39/QH9/f3+AgICAgAAAP78/PwC8vLy/vz8/AL7+/v//f39AQMDA/8DAwMBAQEB/wICAgACAgIB//////z8/AH8/Pz/AAAAAQUFBf4AAAACAQEB/vz8/AIBAQH+AgICAgICAv8EBAQBAAAA//n5+QH9/f3/+Pj4AfX19QD8/Pz/AAAAAQMDA/8CAgIB+/v7/////wD//////v7+Af/////6+voBAAAA/wEBAQH///8A+vr6AAICAgD8/PwA8/PzAPX19QAEBAQADAwMAAQEBAD09PQA9PT0AAEBAf8JCQkBBgYG/wICAgEEBAT/BAQEAQMDAwAICAgACwsLAAQEBAD+/v4ABQUFAA4ODgASEhIA////AAoKCgAVFRUABQUFAPf39wDt7e3/5eXlAeXl5f/n5+cB6enp//Dw8AH09PQAAAAAAAUFBQAEBAQAAgICAAAAAAD9/f0AAAAAAAMDAwAFBQUA////APz8/P////8BCQkJ/w0NDQECAgL/+vr6Aff39wD4+PgA/v7+AP39/QD8/PwA+fn5AAQHBwcACQkJAAMDAwAAAAAAAQEBAAAAAAD5+fkAAAAAAQEBAQD+/v4A+vr6APr6+gH///8AAgICAAcHBwAJCQkABQUFAP39/QD8/PwA////AP///wAFBQUAAgICAP39/QD///8BAAAAAAAAAAD8/PwA/v7+AQICAgAFBQUAAwMDAPz8/AD+/v4A+fn5APn5+QD7+/sA////AAEBAQD///8A/f39AAEBAQAAAAAA////AQAAAAAAAAAA////AP39/QH5+fkAAAAAAPv7+wACAgIA/Pz8APT09AD19fUACAgIAAoKCgABAQEAAQEBAAICAgACAgIBAQEBAP///wABAQEAAQEBAfn5+QDw8PAA8PDwAPb29gAFBQUAAgICAAEBAQD+/v4A+/v7APn5+QAFBQUA/f39AP///wDz8/MA7OzsAerq6gDr6+sA7u7uAPT09AH7+/sA////AP7+/gD///8A/f39AAAAAAD9/f0A/v7+AAYGBgAICAgABQUFAPz8/AAFBQUBBAQEAAgICAAFBQUA/f39Af///wD///8AAgICAAICAgD+/v4A/v7+AP39/QAECwsLAA4ODgEHBwcAAQEBAfz8/AD4+PgB+/v7AP39/QH+/v4A/f39Avz8/AD///8BBQUFAAoKCgEMDAwACAgIAQAAAAD4+PgB9/f3APf39wD+/v4BAwMDAAAAAAEBAQEAAQEBAf///wD8/PwC/f39AP///wEEBAQA////AQAAAAAAAAAB/Pz8APv7+wH///8ABAQEAAMDAwEAAAAA/v7+Afv7+wABAQEBAgIC/wEBAQD9/f0AAgICAQMDAwAEBAQAAgICAAMDAwAJCQkACQkJAP39/QD9/f0A/Pz8AP///wD4+PgA+/v7APn5+QABAQEACQkJAAoKCgADAwMBBAQEAAAAAAD4+PgA5OTkANnZ2QAXFxcAHBwcABMTEwD///8A+fn5AO7u7gDi4uIABgYGAPHx8QACAgIA7+/vAObm5gDh4eEA39/fAevr6wD5+fkAAQEBAAQEBAD9/f0AAgICAAEBAQD+/v4A/Pz8AP39/QAEBAQABQUFAAgICAD6+voAAgICAAMDAwABAQEB+/v7APr6+gD8/PwABgYGAAgICAD+/v4A+Pj4APr6+gAGBgYABP///wD/////////Af///wD7+/sA+Pj4APn5+QD8/PwA/v7+AAICAgAGBgYAAwMDAAQEBAAICAgABgYGAAEBAf/+/v4BAgIC/wQEBAACAgIB+/v7//r6+gECAgIAAwMDAAAAAAD+/v4A/Pz8APz8/AAAAAAAAAAAAAQEBAD+/v4AAAAAAPz8/AD+/v7/AgICAQUFBQAEBAT/////Afr6+gD8/PwAAAAAAAQEBAABAQEA////AAICAgAHBwcABwcHAAUFBQAJCQkADg4OAA8PDwD7+/sA+vr6APr6+gD29vYA8/PzAPz8/AD8/PwABAQEAAYGBgD8/PwA/v7+AP///wAAAAAA+/v7AO7u7gDh4eEA29vbAPr6+gDz8/MACgoKAOjo6ADW1tYA1dXVAAEBAQAQEBAABgYGAPX19QDq6uoA5+fnAOfn5wDx8fEA/v7+AP///wD///8AAwMDAAMDAwADAwMA/Pz8AP39/QD9/f0A/v7+APz8/AD+/v4ABAQEAAMDAwACAgIA/f39APr6+gD9/f0ABQUFAAoKCgAFBQUA/f39AAUFBQD4+PgABwcHAATy8vIA8fHxAQgICAABAQEA+fn5APb29gD8/PwAAAAAAAEBAQADAwMABgYGAAQEBAAAAAAAAAAAAP39/QABAQEBAwMDAAYGBgEGBgYA////AP39/QH9/f0AAQEBAAQEBAAAAAAA/Pz8AAEBAQAEBAQAAgICAAYGBgAICAgACAgIAP7+/gAAAAAA+fn5AQAAAAD///8A/v7+Af7+/gD+/v4AAAAAAP///wD9/f0AAQEBAAICAgAEBAQABwcHAAkJCQADAwMAAwMDAAAAAAD8/PwA+/v7AP39/QACAgIABAQEAPz8/AD///8AAAAAAP///wD29vYA+fn5AP39/QAEBAQACAgIAAYGBgD9/f0A7OzsANHR0QDh4eEADQ0NAAMDAwDq6uoA3NzcAN3d3QD///8ADg4OAAoKCgD+/v4A8vLyAO7u7gDx8fEA+vr6AAUFBQABAQEA/v7+AAMDAwAEBAQAAgICAAMDAwABAQEAAAAAAP39/QD19fUA////AAQEBAADAwMA/v7+AP///wABAQEABQUFAAgICAAJCQkAAgICAPf39wD///8AAgICAAEBAQAE9fX1APT09P7///8CBAQEAPz8/AD+/v4AAQEBAAcHBwAFBQUAAAAAAAEBAQD9/f0AAwMDAAQEBAAEBAQABgYGAAgICAAICAj//Pz8AP39/QH5+fkAAAAAAAYGBgAGBgYA/v7+APj4+AABAQEAAgICAAgICAAHBwcABwcHAAMDAwD8/PwA/v7+AP39/f79/f0C/v7+AP7+/v7///8CAAAAAAYGBgAAAAAA/v7+AAEBAQAEBAQABAQEAAICAgAAAAAAAQEBAP39/QD09PQA9fX1APz8/AD5+fkABAQEAAoKCgABAQEA/v7+AP39/QD9/f0A/Pz8APv7+wD///8AAwMDAAQEBAAKCgoABQUFAPT09ADa2toAAAAAAAMDA/8BAQEB9vb2AO7u7v/r6+sB/v7+APLy8gAJCQkAAQEBAPr6+gD39/cA/v7+AAMDAwADAwMA/v7+AP39/QAAAAAA/Pz8AP///wAAAAAAAgICAAMDAwD///8A+fn5AP7+/gAEBAQAAgICAAQEBAAEBAQAAQEBAAAAAAD7+/sA9/f3APz8/AD09PQA+fn5AP/////6+voBBP7+/gD+/v4CAAAAAAQEBAABAQEA////AAEBAQAJCQkABAQEAPz8/AD8/PwAAwMDAAoKCgAMDAwABAQEAP///wAAAAAABQUFAQYGBgAPDw8A/f39APr6+gAFBQUAAwMDAPn5+QD5+fkA////AAAAAAACAgIABQUFAAMDAwD+/v4A/f39AAEBAQAFBQUCAwMDAP///wD///8C/v7+AAICAgAFBQUAAQEBAP39/QAAAAAAAgICAAICAgD8/PwAAwMDAAMDAwACAgIA+vr6APj4+AD+/v4AAQEBAAMDAwAGBgYABAQEAAUFBQD///8A+fn5APn5+QD///8ABQUFAAgICAAHBwcABQUFAAQEBAD6+voA+Pj4APr6+gD8/PwB/v7+AP7+/gD///8BBwcHAPz8/AD8/PwA8/PzAPz8/AD+/v4AAgICAAYGBgAEBAQABgYGAPz8/AD39/cA/v7+AP39/QD+/v4AAgICAAEBAQAGBgYAAAAAAP///wD+/v4A+/v7AAEBAQD///8AAQEBAAICAgD6+voA+/v7AP7+/gD9/f0A+fn5AP7+/gADAwMB+/v7AAQCAgIABgYGAAcHBwAEBAQAAgICAAMDAwADAwMABQUFAP///wD9/f0AAgICAAgICAALCwsABQUFAP39/QD39/cAAQEBAAEBAf4ICAgABgYGAg4ODgD5+fkA/f39APn5+QD5+fkA/f39AP///wD///8A////AAMDAwAFBQUA/Pz8APz8/AAGBgYABAQEAP7+/gD9/f0A/Pz8AP39/QADAwMABAQEAAEBAQD///8A/Pz8AP///wAAAAAAAgICAAAAAAACAgIABAQEAAAAAAD9/f0A+/v7AP////8AAAAA////Af7+/gD///8AAgICAAgICAAJCQkABAQEAAYGBgAEBAQA/v7+AP///wAAAAAAAAAAAAAAAAACAgIAAAAAAPv7+wD+/v4AAQEBAAAAAAABAQEAAgICAPz8/AD8/PwAAAAAAAMDAwAEBAQACAgIAAoKCgD+/v4ABQUFAPv7+wD9/f0A/Pz8AAAAAP8BAQEABQUFAQICAgD+/v4A////AAEBAQAAAAAAAQEBAP///wD9/f0A+/v7APj4+AD8/PwA/v7+AAAAAAAEBAQACQkJAAkJCQAECwsLAPf39wAFBQUA/v7+AP39/QADAwMABwcHAAQEBAD7+/sA////AAAAAAD///8A+fn5APr6+gD6+voA+vr6AAEBAQD+/v4CCAgIAAMDAwD+/v4AAAAAAPn5+QD19fUA+vr6AAAAAAAHBwcABgYGAAsLCwALCwsACAgIAPv7+wACAgIA/v7+AP7+/gD+/v4A+vr6AP7+/gD8/PwA+/v7AP///wABAQEA+/v7AP39/QAEBAQABwcHAAYGBgAEBAQAAAAAAP///wADAwMACAgIAAMDAwD///8BAAAAAPz8/AD7+/sA/v7+AAICAgAJCQkAEBAQAAkJCQAAAAAA/f39APf39wD4+PgAAQEBAP7+/gD///8A////AAAAAAAAAAAAAAAAAPv7+wD4+PgAAgICAAkJCQAGBgYA////AAMDAwAEBAQAAQEBAAMDAwADAwMAAwMDAP7+/gAFBQUA/Pz8APn5+QD7+/sB////AAMDAwAFBQUA/f39APv7+wD+/v4AAQEBAP///wD///8AAAAAAAICAgAFBQUAAAAAAPv7+wABAQEACgoKABUVFQAQEBAABAwMDAD09PQA/v7+APn5+QD7+/sABAQEAAMDAwABAQEAAwMDAAcHBwD7+/sA+/v7APr6+gD///8AAQEBAAAAAAACAgIA9/f3/vb29gAAAAACBAQEAAUFBQAEBAQABwcHAAAAAAD6+voAAwMDAAgICAAHBwcA/Pz8APHx8QD+/v4A+/v7APz8/AD///8AAgICAAEBAQADAwMA////APr6+gD7+/sAAAAAAAEBAQAHBwcACgoKAAcHBwACAgIA/v7+APr6+gD8/PwA////AAAAAAACAgIABgYG/////wD///8B/v7+APz8/AACAgIAAAAAAAYGBgAJCQkA/f39APb29gD7+/sA+fn5AP7+/gD9/f0A/f39AP///wD///8AAgICAAUFBQAJCQkABwcHAP39/QAEBAQA/v7+AAUFBQAFBQUAAQEBAPr6+gD4+PgA////AAAAAAD9/f0AAQEBAP///wABAQEAAAAA/wAAAAAAAAABAAAAAAICAgAAAAAA/f39AAEBAQADAwMAAgICAAUFBQAICAgA/Pz8APn5+QD29vYA/f39AAcHBwALCwsACQkJAAT6+voA+Pj4AAAAAAD///8AAgICAAICAgD+/v4A/v7+AAICAgAGBgYABwcHAPz8/AD39/cA/v7+AAMDAwAFBQUAAQEBAPv7+wL7+/sA////AAICAgAHBwcABQUFAAgICADy8vIA/Pz8APv7+wD4+PgA////AP7+/gD4+PgA/f39AP///wD+/v4AAQEBAAUFBQAICAgABgYGAAQEBAD6+voA+Pj4APv7+wAAAAAAAwMDAAQEBAD///8A/Pz8AP///wAAAAAA/v7+APv7+wAAAAAACgoKAAkJCQEDAwMAAQEBAAQEBAD7+/sA/v7+APv7+wD19fUA////APz8/AD39/cA9vb2APj4+AD4+PgA+/v7AAAAAAAEBAQABQUFAAgICAAREREADg4OAAAAAAD4+PgA+vr6APn5+QD4+PgAAQEBAPz8/AD9/f0A/Pz8AP///wAGBgYABQUFAPz8/AD5+fkA/v7+AAEBAQECAgIAAgICAAEBAQADAwMA/v7+AP///wAAAAAAAwMDAAQEBAAFBQUAAgICAAICAgD///8A/Pz8APv7+wD+/v4A9vb2APn5+QAE9/f3APb29v4FBQUCBAQEAAUFBQACAgIA/v7+APj4+AAAAAAACQkJAAwMDAD///8AAAAAAP39/QAEBAQABgYGAP///wAEBAT/BQUFAAMDAwEHBwcACQkJAAAAAAD7+/sAAgICAAEBAQD8/PwA9vb2APv7+wAEBAQAAgICAP///wD5+fkA+vr6AAAAAP7///8CCQkJAAgICP4HBwcC/v7+APf39wD19fUA+Pj4AP///wD4+PgAAAAAAAUFBQAICAgA////APLy8gD39/cABAQEAAoKCgAGBgYABAQEAAQEBAD7+/sA+Pj4APf39wD19fUA+vr6AAICAgD7+/sA////AAAAAAD7+/sA9/f3APv7+wAHBwcACwsLABMTE/8UFBQBJCQkABkZGf8EBAQB+fn5APj4+AD5+fkA9/f3APb29gDxZ8zEAAAgAElEQVTs7OwA6enpAPPz8wAHBwcADQ0NAP7+/gDw8PAA+vr6APz8/AAAAAAABQUFAAUFBQACAgIA////AAICAgAFBQUAAQEBAAEBAQD9/f0A+Pj4AAEBAQD9/f0A+/v7AP7+/gD///8A9fX1APr6+v/v7+8BBAAAAAD+/v4C/f39AP///wD+/v4AAQEBAP7+/gD///8AAgICAAQEBAD7+/sAAQEBAAICAgABAQEABQUFAAUFBQAAAAAAAgICAQQEBAAAAAAA////APb29gD9/f0A+fn5APv7+wADAwMAAQEBAAAAAAAGBgYABwcHAAUFBQAAAAAA9vb2APf39wD///8CBwcHAAkJCQAHBwcCBQUFAAAAAAADAwMABQUFAPX19QD9/f0A////AAAAAAAGBgYACAgIAPj4+AD4+PgA+Pj4AA8PDwAHBwcACAgIAAYGBgD+/v4A/Pz8AP///wD5+fkA/Pz8APv7+wD7+/sA+Pj4AAICAgAEBAQA/v7+APv7+wAAAAAADAwMABkZGQAeHh4BHh4eADAwMAAbGxsBAwMDAPv7+wD9/f0AAAAAAP39/QDy8vIA4uLiANzc3ADp6ekA////AAYGBgD19fUA+/v7APHx8QABAQEABAQEAAcHBwAFBQUA/Pz8APj4+AD8/PwAAAAAAAEBAQAAAAAAAQEBAAAAAAD9/f0A/v7+AP7+/gD9/f0A/v7+AP///wD8/PwB+Pj4AAQDAwMAAQEB//z8/AECAgIA////AAAAAAD///8AAwMDAAMDAwAAAAAA+vr6AAAAAAD///8AAwMDAAICAgACAgL/AQEBAfz8/P/5+fkA9/f3Afz8/P8BAQEBAgICAAAAAAD9/f0AAgICAAQEBAAGBgYACQkJAAQEBAACAgIAAwMDABAQEAAEBAQAAgIC//7+/gH8/PwA/v7+//39/QH///8A/f39AAMDAwAPDw8AAQEBAPz8/AD9/f0ABQUFAAAAAAD7+/sA+/v7AAAAAAAFBQUABQUFAAQEBAAJCQkACQkJAAEBAQAPDw8A7u7uAO/v7wD4+PgA8vLyAPr6+gD9/f0AAwMDAAAAAAD9/f0ABAQEAAICAgAJCQkADg4OABMTEwAVFRUAFhYWAAYGBgD19fUA9vb2AAEBAQAHBwcAFRUVAA4ODgAPDw8A7OzsAPj4+AD4+PgA7u7uAAUFBQACAgIA8/PzAP///wAEBAQA+/v7APn5+QD29vYA+vr6AAEBAQAEBAQABQUFAAMDAwAAAAAA////AP///wD///8AAQEBAAUFBQACAgIAAgICAAUFBQAEAgICAAUFBQEDAwMAAwMDAAICAgD+/v4A/Pz8AAAAAAD///8A/Pz8AP7+/gABAQEAAQEBAP///wACAgIAAAAAAQQEBAD9/f0BAAAAAPf39wD7+/sBBAQEAAYGBgAAAAAA/f39AP39/QACAgIABAQEAAMDAwAMDAwADQ0NABAQEAATExMACgoKAP///wHy8vIA5eXlAOnp6QHx8fEA/Pz8AAUFBQAKCgoADw8PAAUFBQD39/cA9fX1APz8/AD8/PwA////AAoKCgD///8ACQkJAAUFBQAGBgYADQ0NABISEgAICAgA+/v7ABAQEADn5+cA7u7uAPr6+gDz8/MA/Pz8AP7+/gABAQEA////APv7+wD09PQA7e3tABEREQATExMA9/f3AAEBAQAGBgYA8vLyAOnp6QDz8/MAAwMDAAMDAwD5+fkA/f39AAwMDAALCwsA+/v7AAwMDAAPDw8ADAwMAOzs7AD29vYA/Pz8APLy8gABAQEAAAAAAAEBAQABAQEAAgICAAQEBAAEBAQAAAAAAAMDAwD9/f0A////AAMDAwAEBAQAAwMDAAICAgAICAgABAUFBQAICAj/BwcHAQICAv8AAAAB/v7+//v7+wH+/v7/AAAAAQAAAP7+/v4C/////wEBAQEAAAD/AwMDAf7+/v/+/v4BAwMD/wYGBgALCwsB+/v7/wEBAQH+/v7/+vr6Afz8/P/+/v4BBQUF/gAAAAIRERH/JiYmASgoKP8gICABExMT/////wHv7+//4uLiAfz8/AD19fX/+fn5AQMDA/8UFBQBExMT/w4ODgD6+voA6urqAPPz8//29vYBBQUFAA4ODgAUFBQAAQEBAAQEBAAMDAwADw8PAA0NDQAKCgoABgYGAAEBAQAGBgYABwcHAAYGBgAGBgYABQUF//7+/gECAgIABAQEAP7+/gD5+fkA8PDwAAEBAQALCwsAFxcXAP///wAHBwcADQ0NAPX19QD19fUA3t7eAO/v7wD39/cA+/v7AAEBAf8HBwcBCgoKAAwMDAAHBwcADQ0NAPT09ADy8vIA9fX1AP7+/gD///8AAwMDAAkJCQAHBwcA////AAAAAAABAQEA/v7+/////wH///8AAwMDAAMDAwAGBgYABQUFAAAAAAD9/f0AAQEBAAT8/PwA/f39AP39/QD+/v4AAAAAAAAAAAAFBQUAAQEB/wUFBQEBAQEA/v7+APz8/P8AAAABBgYGAAcHBwABAQEA+/v7APr6+gD8/PwACQkJAAcHBwD7+/sA9/f3APz8/AD9/f3/BgYGAREREQAcHBwALy8v/zMzMwEtLS0AGxsbAAgICAD4+PgA5eXlAP39/QDw8PAACAgIAP39/QAPDw8AFhYWAAwMDAD9/f0A5ubm//b29gEBAQEA////AAMDA/8NDQ0BERERAAICAgD8/PwABwcHAAcHBwD///8A8PDwAPz8/AD09PQA8fHxAPHx8QD4+Pj/AQEBAQYGBgD///8AAAAA/wICAgECAgIA/v7+APz8/AD+/v4AAQEBAAUFBQAFBQUAAQEBAAICAgAEBAQAAQEBAPj4+ADv7+8A7+/v//T09AH+/v4AAwMDAAoKCv8PDw8BEBAQAP39/QDo6OgA6enpAPT09AACAgIA////AAMDAwAGBgYA/f39APr6+gD+/v7//f39Af///wABAQEAAwMD/wQEBAEGBgYABQUFAAMDAwD+/v4A/v7+AP7+/gAE9vb2APf39wH+/v4AAAAAAQAAAAABAQEBBQUFAAcHBwIBAQEAAwMDAgMDAwAGBgYCCQkJAAwMDAEICAgA+/v7AfLy8gD19fUBAQEBAAoKCgAAAAAB9vb2AP7+/gH+/v4AAQEBAhQUFAAsLCwCODg4ADY2NgIjIyMAExMTAQUFBQAAAAABCAgIAPz8/AEFBQUAGxsbAAAAAAEKCgoACwsLAQoKCgD9/f0B6urq/9LS0gHq6uoACAgIAfX19QD///8B/f39AP///wADAwMAAAAAAPz8/ADu7u4A+/v7APX19QD29vYA8/PzAPf39wD9/f0ABwcHAQEBAQAKCgoBCAgIAP39/QH9/f0AAgICAAoKCgAEBAQAEhISABQUFAAGBgYA7+/vAOLi4gDt7e0A7u7uAOfn5wDu7u4A8/PzAPb29gH4+PgA+Pj4Afr6+gABAQEBCwsLABISEgABAQEA7OzsAOzs7AD7+/sACwsLAAQEBAACAgIA/Pz8APn5+QD6+voA/v7+AQAAAAADAwMBBgYGAAgICAEICAgABwcHAAICAgABAQEA////AAMDAwAFBQUABAICAgAAAAD//Pz8Af///wAAAAAAAAAAAPr6+gD29vYABAQEAAQEBAAGBgYAEBAQAAsLCwAMDAwABAQEAAUFBf8BAQEBAQEB/////wAJCQkBAAAA/wQEBAECAgIAAAAAAAgICAAdHR0AJycnADAwMAArKysADQ0NAAQEBAAAAAAA/v7+AAEBAQAODg7/CgoKAQICAgAFBQX/AwMDAQMDAwABAQEA+/v7APz8/AAKCgoAAwMDAP///wD8/PwA/Pz8APHx8QACAgIACAgIAP7+/gD8/PwA+vr6APj4+AD09PQA+fn5APr6+gD///8AAgICAAQEBAAFBQUACQkJAAEBAQD7+/sA/f39AAQEBAAGBgYACQkJAA0NDQAAAAAA7u7uANnZ2QDq6uoABAQEAPLy8gDh4eEA7OzsAPX19QD6+voA/f39AP///wD9/f0A/Pz8AAEBAQALCwsACAgIAAQEBAAFBQUA/f39AP39/QD8/PwA9vb2APb29gD5+fkA/f39AAAAAAACAgIAAwMDAAUFBQAFBQUAAwMDAAAAAAD+/v4ABAQEAAYGBgABAQEACQkJAAQCAgIABAQEAQEBAQD9/f0AAAAAAP7+/gD6+voA/Pz8AAAAAAADAwMADAwMAAoKCgD8/PwA9fX1AP///wADAwMB////AAQEBAH9/f0AAAAAAAkJCQEICAgABwcHAAAAAAALCwsAERERAAgICAAFBQUAAgICAAAAAAD9/f0A/v7+APv7+wAAAAAABwcHAQsLCwACAgIAAQEBAQAAAAD///8A+vr6APPz8wDr6+sA5+fnAOvr6wDw8PAA9PT0AAEBAQD+/v4A////AAgICAAAAAAA/Pz8APf39wD39/cA+fn5AAICAgAHBwcABgYGAAMDAwACAgIABAQEAAMDAwAAAAAAAgICAP///wAEBAQABwcHAAcHBwD///8A9PT0AAEBAQD+/v4A7u7uAP///wD4+PgA8/PzAPr6+gD5+fkA9PT0APf39wD8/PwA/Pz8AAAAAAD+/v4A/f39AP///wAGBgYABgYGAPb29gD09PQA+vr6APj4+AD4+PgA/f39AP7+/gD///8AAgICAAYGBgABAQEA/f39APX19QD+/v4AAQEBAAgICAAJCQkABQUFAP///wAE/Pz8AP////8EBAQB////AP39/QD///8AAgICAAQEBAAAAAAABAQEAAAAAAD29vYA/v7+AAEBAQD///8AAAAAAP///wD7+/v/AwMDABAQEAEICAgADAwMAAYGBgD9/f0AAAAAAPDw8ADc3NwADQ0NAAEBAQAUFBQABwcHAP///wD+/v4AAgICAAUFBf8HBwcBCwsLAAcHB/8CAgIB9/f3AOvr6wDg4OAA0NDQAM7OzgDd3d0A7e3tAPn5+QAFBQUA+/v7APb29gD7+/sAAQEBAPz8/AD5+fkA+fn5AP///wAICAgADw8PAAoKCgACAgIA/Pz8AP39/QAAAAAAAQEBAP///wD8/PwAAAAAAP39/QD29vYABgYGAA4ODgAXFxcAGxsbAAsLCwAEBAQA+fn5AO7u7gDl5eUA8/PzAPT09ADz8/MA/v7+AAQEBAAGBgYA/v7+APX19QD5+fkA9/f3APPz8wD39/cA/v7+AP///wACAgIABQUFAP7+/gD///8AAAAAAAEBAQABAQEA////APr6+gD6+voA+vr6AP7+/gAHBwcABgYGAAQEBADx8fEABP39/QAAAAABAwMDAPz8/AD8/PwA/v7+AAICAgAEBAQAAgICAAYGBgAEBAQA+Pj4APb29gD+/v4A////AP39/QD///8ACgoKARMTEwATExMAFxcXAA8PDwD7+/sABgYGAPHx8QDy8vIA9vb2APv7+wDv7+8ADw8PAAYGBgAJCQkABQUFAP7+/gAAAAABCgoKABsbGwAZGRkBDAwMAO/v7wDZ2dkA1NTUAM7OzgDa2toA5eXlAPX19QACAgIA////APv7+wD9/f0AAgICAAAAAAD+/v4A/f39AP39/QAFBQUABAQEAAcHBwAICAgAAwMDAPr6+gD6+voAAQEBAAICAgD///8A+vr6AP39/QD+/v4A/v7+AAUFBQAYGBgALS0tACUlJQANDQ0ABAQEAPT09ADc3NwA7+/vAPv7+wD6+voA/f39AAICAgAFBQUABwcHAAEBAQDz8/MA+fn5APj4+AD6+voA/v7+AAICAgAGBgYABQUFAAICAgD9/f0A/f39AAEBAQAHBwcABQUFAAAAAAD+/v4A////AP///wD+/v4A+fn5APr6+gACAgIA9/f3AAT///8A////AP39/QD9/f0A/f39AP7+/gD///8AAgICAAMDAwACAgIAAgICAPr6+gD7+/sA/v7+AP39/QAAAAAACgoKAB8fH/4kJCQAIyMjAhMTEwAJCQkA+Pj4AOrq6gDq6uoA7e3tAPv7+wD+/v4A5OTkAN/f3wD29vYAAwMDAAgICAD+/v4A/Pz8AAgICAAdHR0AISEhABUVFQD09PQA1tbWANjY2ADf398A7e3tAPn5+QAAAAAAAQEBAP7+/gD6+voAAQEBAAAAAAAAAAAAAAAAAAAAAP8AAAAAAAAAAf7+/gD6+voAAwMDAAQEBAAAAAAABgYGAAMDAwD///8A+vr6AAAAAAD+/v4AAAAAAP7+/gABAQEABQUFAAgICAAICAgAAgICAPz8/AD5+fkA9PT0APLy8gD39/cAAAAAAAYGBgAAAAAAAQEBAAEBAQAAAAAA+fn5APLy8gD5+fkAAAAAAAMDA/8BAQEAAgICAQEBAQD8/PwABAQEAP///wADAwMABgYGAAICAgD+/v4A////AAEBAQAFBQUABAQEAP///wD+/v4AAAAAAAEBAQAE/v7+APj4+AD8/PwA/v7+AAICAgACAgIAAAAAAAEBAQABAQEAAwMDAAICAgACAgIAAgICAAICAgADAwMAAwMDABYWFgArKysCLi4uACEhIQAREREABwcHAPT09AAUFBQAGBgYAPHx8QD5+fkA+vr6APLy8gDr6+sA5ubmAPr6+gAICAgABQUFAP7+/gAAAAAA5eXlAODg4AAVFRUA/Pz8AOLi4gDj4+MA6+vrAPj4+AADAwMAAAAAAP///wD+/v4AAQEBAAMDAwADAwMA/v7+AP///wD///8BAQEBAP///wD7+/sA9fX1APr6+gAGBgYABgYGAAkJCQABAQEA+vr6APv7+wD///8A/v7+AP///wAEBAQAAAAAAO7u7gDa2toA8/PzAAAAAAD5+fkA+fn5AObm5gDr6+sA/Pz8AAUFBQAAAAAA+vr6APr6+gAHBwcABgYGAPn5+QD9/f0A+/v7AAICAgABAQEBAAAAAP39/QAEBAQABQUFAAsLCwABAQEAAwMDAAAAAAD9/f0A/Pz8AP///wADAwMABAQEAAAAAAD9/f0A+/v7AP///wAAAAAABP7+/gD6+voA/Pz8AAYGBgAMDAwABgYGAPv7+wD7+/sAAwMDAAYGBgAEBAQA////AAAAAAAEBAQAAwMDAAUFBQAODg4ADw8P/gsLCwAEBAQC////APz8/AD5+fkA////AAcHBwAMDAwAAQEBAPj4+AD19fUA9PT0APn5+QAAAAAABAQEAAQEBAD6+voA9/f3APj4+AD6+voA8vLyAP7+/gDp6ekA7e3tAPPz8wD9/f0AAwMDAAMDAwD6+voA/f39AAYGBgAJCQkABgYGAPz8/AD8/PwA/Pz8/wAAAAAAAAAB+/v7AAEBAQD9/f0A////AP///wABAQEA////APb29gD7+/sA////APz8/AADAwMACQkJAAQEBADw8PAA2NjYAObm5gABAQEA/Pz8AP///wD09PQA9vb2AAICAgAFBQUA/Pz8AAAAAAAGBgYADQ0NAAsLCwABAQEA9vb2AP7+/gACAgIAAQEB/wEBAQACAgIBBQUFAAcHBwADAwMACAgIAAICAgD7+/sA+fn5APr6+gD+/v4AAQEBAAAAAAD9/f0A+/v7AP///wD9/f0AAQEBAAQCAgIAAAAAAAICAgALCwsAFRUVAAoKCgD29vYA8/PzAP7+/gAGBgYABQUFAPv7+wD7+/sAAgICAAYGBgAEBAQA+/v7AObm5gIFBQUA7u7uAAMDAwD39/cA8/PzAPj4+AD9/f0A+vr6APX19QDw8PAA8fHxAPn5+QAFBQUACgoKAAcHBwD6+voA8/PzAPT09AAAAAAA/f39APz8/AD+/v4A8vLyAPb29gD9/f0AAgICAAYGBgAAAAAA/f39AP7+/gACAgIABAQEAAMDAwD///8AAAAAAAICAgH+/v4A/v7+AAEBAQAAAAAAAgICAAAAAAD7+/sA+/v7APv7+wD6+voAAgICAAEBAQD6+voABAQEAAMDAwAFBQUA+/v7AP39/QAEBAQACQkJAAAAAAD6+voA9/f3APr6+gAAAAAAAQEBAAAAAAAEBAQACwsLAA4ODgAICAgA/Pz8AA8PDwADAwMAAQEBAAEBAQEBAQEAAQEBAAUFBQADAwMACAgIAA4ODgACAgIA+Pj4APn5+QD8/PwA/v7+AP7+/gD9/f0A+/v7AAQEBAAEBAQA////AAgICAAEBwcHAAUFBf4ICAgCDAwMAA4ODgAKCgoAAgICAPr6+gD4+PgA/f39AP///wD4+PgA9/f3AP39/QD+/v4AAAAAAPPz8wD5+fn+6+vrABISEgL///8A8/PzAPX19QD8/PwAAAAAAP39/QD19fUA+fn5AAMDAwALCwsACgoKAAEBAQDy8vIA8/PzAO3t7f729vYCAQEBAPj4+P74+PgCBAQEAPz8/AAGBgYAAgICAAEBAQADAwMA/v7+AP39/QD+/v4A/Pz8APj4+AD9/f0A/v7+AAQEBAAHBwf//v7+AP7+/gEAAAAABAQEAAEBAQD9/f0A/v7+APz8/AD+/v4AAwMDAAUFBQD9/f0A////AP39/QD8/PwA+vr6AAUFBf8MDAwBExMTABMTE//9/f0B7+/vAPn5+QD29vYA/f39AP///wAGBgYA/v7+AAEBAQD39/cA/f39APv7+wABAQEABgYGAAAAAAADAwP/AAAAAP7+/gH8/PwA+/v7AAEBAQD6+voAAgICAP39/QACAgIABQUFAP7+/gD6+voA////AAAAAAADAwMAAAAAAP7+/v8CAgIBBAcHBwAICAgCBgYGAAICAgD+/v4A/Pz8AP39/QD9/f0A+/v7APv7+wAAAAAA+fn5APv7+wD///8A/f39APv7+wD+/v4A////AgMDAwABAQEABAQEAPb29gD29vYA+Pj4AP///wD+/v4A+fn5AAEBAQAICAgABQUFAP///wD19fUA8vLyAPPz8wD39/cC/Pz8AAICAgD39/cC////AAcHBwAGBgYACQkJAP///wD7+/sA/Pz8AP7+/gABAQEAAAAAAPr6+gD+/v4ABQUFAAUFBQAFBQUABQUFAQICAgD///8A/v7+APz8/AD5+fkA////AAEBAQABAQEABQUFAAcHBwADAwMA+/v7AP7+/gACAgIA+/v7APT09AAJCQkBDw8PAA8PDwAVFRUB////AAMDAwD4+PgA+/v7AP7+/gD8/PwAAQEBAAICAgD7+/sA8vLyAAUFBQD+/v4A+/v7APj4+AD8/PwAAwMDAQQEBAD+/v4A/Pz8AAAAAAD9/f0A+/v7AP///wAAAAAAAwMDAAICAgD7+/sA+Pj4APv7+wAAAAAAAgICAP7+/gD7+/sB+fn5AAQCAgIAAwMD/////wH4+PgA8fHxAPj4+AD5+fkA+Pj4APr6+gD+/v4AAQEBAAICAgAKCgoAAAAAAPz8/AAAAAD+CAgIAhAQEP8PDw8ACwsLAQICAv4AAAAC////AP39/QD+/v4AAgICAAkJCQAFBQUABgYGAP7+/gD4+PgA9fX1APT09AD5+fkA/////wYGBgEEBAQAAgIC//7+/gH6+voA////AAUFBQABAQEA+vr6APj4+AAAAAAAAAAAAAAAAAD///8A/Pz8AAQEBAAEBAT/BAQEAQUFBQAEBAQAAAAAAPn5+f/09PQB9vb2AP7+/gAJCQkADg4OAAoKCgACAgIA/Pz8AAMDAwALCwsAAgICAPv7+wDz8/MAAAAAAP///wADAwMABAQEAAAAAAAFBQUAAQEBAP39/QD39/cA8/PzAP7+/gAFBQUAAwMDAP39/QAEBAQA////APv7+wDy8vL/+fn5AQQEBAAICAgAAwMDAP7+/v8CAgIB9/f3APT09AD+/v4AAAAAAAMDAwACAgIA+/v7APj4+AD8/PwAAwMDAAcHBwABAQEA+/v7APn5+QAE+/v7AP///wEAAAAA/Pz8APn5+QAAAAAA+/v7AP///wD///8AAgICAAUFBQAICAgABAQEAPr6+gD5+fkABwcHAhEREQAUFBQBBgYGAPj4+AD7+/sC/Pz8AP39/QADAwMAAgICAAUFBQADAwMA////APn5+QD5+fkA+fn5APj4+AD8/PwAAQEBAAcHBwEDAwMA////AAEBAQEEBAQABAQEAP7+/gD29vYA/Pz8APz8/AD9/f0AAwMDAAQEBAAEBAQA////AAAAAAAGBgYABwcHAQQEBAD///8AAQEBAP///wD8/PwB+vr6APn5+QAAAAAACAgIAAUFBQAJCQkA/v7+APv7+wD+/v4AAwMDAP39/QD5+fkA/Pz8AAsLCwD+/v4A9PT0AO7u7gD6+voA5+fnAOLi4gDq6uoA8vLyAP7+/gAGBgYAAwMDAAQEBAAGBgYABwcHAPj4+AD7+/sA/f39AQICAgAFBQUABAQEAAQEBAD+/v4B/Pz8APz8/AD+/v4A////AP39/QD+/v4A////AP///wAAAAAA////AP7+/gD9/f0AAgICAAAAAAABAQEABPn5+QD/////AwMDAQAAAP/8/PwBAwMD//7+/gH///8AAgICAAMDAwAJCQkADAwM/wMDAwH19fX/AQEBAQ4ODv8TExMBCQkJ//b29gDu7u4B9vb2/wAAAAEFBQX/AQEBAQAAAP8BAQEB/Pz8APj4+AD29vYA+vr6APv7+//7+/sBAwMD/wkJCQENDQ3/AgICAff39wD9/f3/BgYGAQUFBf/4+PgB9vb2//b29gAAAAAABgYGAAMDAwABAQEAAQEBAAICAgADAwMACAgIAAsLCwACAgIA/f39AP39/QD7+/sA+vr6AAICAgAKCgoAAAAAAAYGBgABAQEAAgICAAQEBAD7+/sA/Pz8APr6+gD9/f0A/f39AAMDAwADAwMA+tYMB9cAACAASURBVPr6AOjo6ADv7+8A9vb2AOjo6ADo6OgA+fn5AAUFBQAQEBAACwsLAAEBAQD7+/sAAAAAAPr6+gD19fUA+/v7AAkJCQAICAgABQUFAAAAAAD+/v4A+/v7APz8/AD7+/sABAQEAAQEBAADAwMA+fn5AP7+/gAEBAQABAQEAP///wABAQEAAwMDAAMDAwD+/v4ABgYGAAEgNt/JBP////4BAQEAAQEBAf/////+/v4B/Pz8/////wEAAAD+AgICAgMDA/4CAgICAAAA//39/QH9/f3//f39Afr6+v/19fUB/Pz8//n5+QD5+fkB+Pj4//39/QEEBAT/AgICAf////8CAgIBAAAA/v39/QL////+AQEBAvz8/P/7+/sBBAQE/wwMDAEUFBT/AQEB//T09AD5+fkAAwMDAQMDA//8/PwBAwMD/wQEBAEAAAD/AgICAf/////+/v4BAQEB/wUFBQEHBwf/CAgIAQUFBf8AAAAB/f39//v7+wD6+voBAAAA/wwMDAEEBAT/AQEBAf////8BAQEB/Pz8/wMDAwEAAAD//f39Afv7+/8BAQEBCAgI/wgICAEGBgb/9vb2APj4+AABAQEA+vr6AfLy8v/9/f0BBwcH/w0NDQEPDw//CgoKAfv7+//09PQB+Pj4//j4+AH6+vr/CQkJAQgICP8ICAgB/v7+//n5+QD19fUB+vr6//v7+wH+/v7/AQEBAQUFBf////8BAAAA//39/QEEBAT/AwMDAf39/f8CAgIBCQkJ/wUFBQH/////CQkJAAQJCQkC9fX1AAMDAwD9/f0C////AAEBAQIEBAQA////Avr6+gAAAAAC/f39APr6+gIAAAAA////AgAAAAD9/f0C+Pj4AP///wL///8ABwcHAP7+/gL5+fkA/f39Avr6+gD7+/sC/v7+AAEBAQIKCgoAEBAQAgUFBQDx8fEC8fHxAAUFBQIFBQUAAQEBAv///wD9/f0A/f39AP///wD8/PwC+fn5AAICAgINDQ3/////Afz8/AD+/v4BAQEBAAkJCQEICAgABQUFAf///wD19fUB////AP///wH8/PwA/v7+AAYGBgENDQ0ACgoKAf39/QD4+PgB/v7+APv7+wH39/cA+fn5Aff39wD+/v4BBwcHAAoKCgEKCgoAAAAAAfPz8wD39/cAAwMDAAEBAQD6+voB/v7+AP///wH29vYAAAAAAfr6+gD8/PwB9vb2APr6+gH///8ACwsLAQ0NDQAKCgoB/v7+APX19QH6+voA+/v7APn5+QH8/PwAAAAAAf39/QAAAAABBQUFAAEBAQEAAAAABAQEAf39/QD8/PwBAAAAAAcHBwEMDAwAAQEBAQsLCwAECQkJAAQEBP/+/v4B/f39/v///wIAAAAAAwMDAAUFBQD6+voA+fn5APz8/AD9/f0ABAQEAAMDAwAJCQkACQkJ/wcHBwEBAQH/////AAAAAAH/////AAAAAfn5+QD9/f0AAgICAAAAAAABAQEABQUFAAwMDAAICAgA////APv7+wD8/Pz+9vb2Av7+/v/8/PwB9vb2AP39/f8DAwMBAAAA/vn5+QL+/v4ABAQEAAICAgABAQEA////AP///wAAAAAAAQEBAPz8/AD5+fkA9vb2AAAAAAAGBgYAAAAAAAMDAwAGBgYADAwMAAgICAD5+fkA+vr6AP7+/gD7+/sA9/f3APn5+QD+/v4AAQEBAAMDAwAGBgb/BgYGAfv7+wD+/v4A////AP39/QD///8A+/v7//n5+QH9/f0A8/PzAAUFBQAICAgAAAAAAPj4+AAAAAAADg4OAA8PDwANDQ0AAQEBAPX19QD5+fkA+vr6APv7+wD7+/sA/Pz8AP///wAAAAAABgYGAAUFBQAGBgYABQUFAAUFBQD5+fkA+Pj4APv7+wD9/f3/AwMDAQcHBwAFBQUABP7+/gD6+voB+/v7APz8/AICAgIAAgICAAEBAQD9/f0A+/v7APb29gD///8ABQUFAAYGBgALCwsABwcHAAUFBQECAgIA////Af7+/gAAAAAAAwMDAQUFBQD7+/sAAQEBAAcHBwABAQEA/v7+AAEBAQD6+voA////APn5+QAAAAAA////AvPz8wDx8fEB/v7+AAAAAAABAQEBAgICAAAAAAL9/f0A/f39APn5+QADAwMAAQEBAPz8/AD+/v4A+fn5APX19QADAwMA/v7+APr6+gADAwMAAgICAAICAgAFBQUABAQEAAYGBgADAwMA/v7+APv7+wD5+fkA/v7+APv7+wACAgIACAgIAAQEBAAJCQkADQ0NAQkJCQD8/PwABgYGAP///wD6+voA7+/vAAAAAAEDAwMA/f39APv7+wD8/PwA/f39AP7+/gD5+fkABAQEABAQEAAHBwcAAwMDAPb29gDy8vIA8/PzAPr6+gD///8AAQEBAAICAgD///8AAAAAAP///wD+/v4AAwMDAAICAgAEBAQA+/v7AP///wD7+/sA+fn5Afv7+wAHBwcAAQEBAAT29vYA9/f3/wAAAAH+/v4A////APj4+AD///8AAAAAAP39/QABAQEAAgICAP7+/gD39/cA/Pz8APz8/AD6+voABgYGAAUFBf8CAgIAAwMDAQUFBQACAgIA+/v7APr6+gAAAAAAAAAAAPz8/AD7+/sA/v7+AAUFBQD39/cA/f39AAAAAAD///8A/v7+/wICAgEEBAQAAQEB//39/QH///8ABgYGAP///wD6+voA/v7+AP7+/gD8/PwA/f39AAICAgABAQEABAQEAAQEBAABAQEAAgICAAEBAQAAAAAA/v7+AP39/QD8/PwAAgICAP7+/gD7+/sA+fn5AAAAAAAFBQUABQUFAAUFBQAFBQUACwsLAA8PDwANDQ0AAQEBAAICAgADAwMA9fX1AAYGBgDy8vIA+Pj4APb29gD+/v4A/v7+AAICAgACAgIAAgICAAQEBAADAwMA////AP7+/gD///8AAAAAAAICAgAEBAQABwcHAAEBAQD+/v4AAAAAAAICAgACAgIA+fn5AP7+/gD4+PgABQUFAPv7+wD8/PwAAgICAAEBAQD7+/sA8/PzAPb29gAE+vr6AP39/QEHBwcAAwMDAP///wD///8A/Pz8AAMDAwAHBwcABwcHAAQEBAD8/PwA9fX1APz8/AD39/cA/v7+AAgICAAMDAwBCQkJAAkJCQAFBQUA/f39AP39/QD6+voA+/v7AP7+/gD6+voA/Pz8AP39/QAGBgYA/v7+AAMDAwAGBgYABgYGAP39/QEBAQEAAgICAP7+/gH9/f0AAQEBAAgICAAFBQUA+/v7APn5+QD9/f0ABAQEAP///wADAwMABwcHAAMDAwAAAAAA/Pz8AP///wD///8A/v7+APr6+gD4+PgA+Pj4AAAAAAD+/v4A/v7+APv7+wABAQEAAwMDAAEBAQD+/v4AAQEBAAYGBgALCwsAERERAAwMDAAKCgoABgYGAPf39wAKCgoA6+vrAOzs7AD+/v4A9/f3AP39/QD///8ABQUFAAICAgAHBwcABQUFAP7+/gABAQEACAgIAAwMDAD+/v4A+vr6AAICAgAEBAQA/v7+AAAAAAAAAAAA/f39APj4+AD7+/sAAQEBAAMDAwAAAAAAAgICAAYGBgAEBAQA9vb2APf39wDw8PAABAQEBAAEBAQACAgIAAkJCQAAAAAA+vr6AP7+/gAEBAQAAwMDAAICAgD///8A/v7+AAQEBAABAQEABwcHAAgICAAHBwcACgoK/gsLCwAHBwcCAgICAP7+/gD9/f0A/Pz8APj4+AD7+/sA/f39AAAAAAACAgIAAAAAAAICAgADAwMABgYGAAQEBAD6+voA+vr6AP39/QD///8AAgICAAICAgAFBQUABgYGAAICAgAEBAQAAAAAAAEBAQD+/v4A/f39AP7+/gD8/PwA/v7+AP///wAAAAAA/v7+/////wABAQEB+/v7APb29gD+/v4A+/v7APv7+wD8/PwAAAAAAP///wD7+/sAAgICAAICAgD///8AAAAAAAMDAwAMDAwADw8PAAgICAD4+PgA9fX1APn5+QDz8/MAAgICAAAAAAAAAAAA/v7+AP39/QABAQEAAgICAAMDAwAAAAAA/f39AAICAgADAwMAAAAA//z8/AD6+voB/Pz8AP7+/gD///8AAQEBAP7+/gADAwMACAgIAAQEBAABAQEAAAAAAAICAgADAwMA////APT09ADz8/MA9vb2AAQHBwcABAQEAAEBAQADAwMABgYGAAQEBAD7+/sAAAAAAAEBAQD8/PwA+/v7APf39wD7+/sABwcHAAMDAwADAwMABQUFAAwMDAIPDw8ACAgIAPv7+wD7+/sAAgICAP///wD///8A/Pz8AAICAgAEBAQAAgICAAEBAQD+/v4A/f39AAAAAAACAgIAAAAAAPv7+wD+/v4ABwcHAAgICAACAgIABQUFAAEBAQADAwMAAQEBAAICAgAAAAAA/f39APz8/AD39/cA9/f3AP///wACAgIAAgICAAMDAwEFBQUABQUFAAICAgD5+fkA+vr6APj4+AD19fUA+fn5AAICAgD8/PwAAAAAAAUFBQAMDAwAAAAAAPv7+wD5+fkA/f39AAAAAAACAgIAAgICAAEBAQD9/f0A+fn5APr6+gD+/v4AAQEBAAMDAwAEBAQABQUFAAgICAAICAgAAQEBAPj4+AD+/v4A9vb2APPz8wH19fUA+vr6AP7+/gD9/f0A/f39AAICAgADAwMACgoKAA4ODgAJCQkA/f39AP///wADAwMA////APb29gD+/v4AAAAAAAEBAQAEBgYGAP7+/gD39/cAAQEBAP7+/gAAAAAAAgICAAEBAQD///8A/f39APv7+wD7+/sA/f39APv7+wACAgIABAQEAAICAgALCwv+ERERAAoKCgL09PQA8fHxAAAAAAD///8A/Pz8APr6+gD9/f0AAgICAAMDAwD///8A+/v7AAEBAQAFBQUAAwMDAP39/QAAAAAAAwMDAAgICAAICAgAAAAAAP///wACAgIAAgICAPj4+AD4+PgA/f39AP///wD6+voA+/v7AP7+/gD+/v4A////AAICAgAGBgb/CQkJAAQEBAEAAAAA/Pz8APv7+wD29vYA+Pj4AP7+/gACAgIA////AAAAAAADAwMA/v7+AP39/QD6+voA+fn5APn5+QD6+voAAQEBAPX19QDx8fEA7u7uAO7u7gD09PQA+vr6AAMDAwACAgIABgYGAAoKCgAMDAwACAgIAPv7+wD29vYA+vr6APf39wD09PT/9vb2AP///wECAgIA/f39AP39/QD///8AAgICAAEBAQACAgIAAAAAAP///wD///8AAAAAAAICAgADAwMABwcHAP///wAHBwcABAEBAQD///8A+vr6AP7+/gD5+fkABAQEAAgICAAJCQkAAAAAAPz8/AAAAAAAAgICAAEBAQACAgIAAQEBAAMDAwAGBgYABAQEAgEBAQD///8A/Pz8APPz8wD09PQA9PT0APj4+AD9/f0AAgICAAUFBQACAgIA+vr6APz8/AABAQEA/f39APv7+wAAAAAABQUFAAQEBAACAgIA+vr6AP39/QADAwMABwcHAP///wD6+voA9fX1AAAAAAABAQEA/Pz8AAEBAQAHBwcAAwMDAAMDAwAGBgYACQkJAQQEBAD///8A/f39AAEBAQACAgIABgYGAAICAgD+/v4A////AP///wD+/v4A/Pz8APX19QAFBQUACAgIAAwMDAD6+voA9vb2APX19QDy8vIA7OzsAOzs7ADv7+8A9vb2AP///wACAgIA/v7+AAEBAQACAgIA////AP39/QD4+PgA9fX1APz8/AD6+voA/Pz8Af///wACAgIAAgICAAQEBAACAgIAAwMDAAYGBgAEBAQA/Pz8AP7+/gD9/f0A/f39AAICAgACAgIAAQEBAAcHBwABAQEABQUFAAT9/f0AAgICAAMDAwAAAAAA/f39AAEBAQD+/v4A/f39AP7+/gD6+voA+/v7AAICAgAEBAQABgYGAAUFBQAICAgABAQEAPf39/7s7OwAAAAAAvf39wD29vYA/Pz8AP///wAAAAAAAgICAAEBAQAEBAQAAwMDAP///wAFBQUA/v7+APv7+wD///8AAAAAAAAAAAD9/f0A9vb2APj4+AD9/f0ABgYGAAkJCQABAQEA+/v7AAICAgAEBAQAAAAAAP7+/gD9/f0ABgYGAAcHBwAEBAQAAwMDAAUFBf/+/v4A/f39Af7+/gACAgIABgYGAAUFBQAAAAAA/v7+AP7+/gD4+PgA+vr6APz8/ADy8vIA/Pz8AAMDAwAFBQUACAgIAPr6+gD9/f0A8/PzAPDw8AD19fUA+/v7AAICAgADAwMAAQEBAAAAAAD+/v4A/Pz8APj4+AD+/v4A+fn5APz8/AAAAAAAAgICAAEBAf8BAQEAAAAAAf39/QABAQEABAQEAAcHBwAHBwcABQUFAPv7+wD8/PwA/v7+AP7+/gD///8ABQUFAAkJCQADAwMAAgICAAEBAQAE+fn5AP7+/gAFBQUAAAAAAAICAgADAwMA/v7+APb29gD8/PwA+vr6AAAAAAAGBgYABgYGAAYGBgAGBgYABAQEAPj4+AD7+/sCAQEBAAAAAAAAAAAABQUFAAsLCwAHBwcAAgICAPT09AD+/v4AAAAAAP7+/gAAAAAAAgICAPv7+wD7+/sAAgICAAEBAQAAAAAAAAAAAP7+/gD6+voA/v7+AAQEBAD39/cAAwMDAAMDAwAHBwcABgYGAP39/QD6+voAAAAAAAEBAQABAQEA/f39AP7+/gD+/v4B////AP///wD///8AAgICAAICAgAEBAQAAgICAAICAgD+/v4AAAAAAP39/QD7+/sA+/v7APX19QDt7e0AAgICAAQEBAD39/cA////APf39wD6+voAAwMDAAkJCQD+/v4AAAAAAPz8/AD///8A/f39APz8/AAAAAAA+vr6APz8/AAEBAQACgoKAP7+/gD9/f0B/f39APn5+QD///8AAwMDAAYGBgAICAgACAgIAAICAgD7+/sA/f39APz8/AD///8AAQEBAP///wAAAAAA////AP7+/gD///8ABPv7+wD9/f3/////Af7+/gAEBAQAAQEBAAAAAAAAAAAAAAAAAAcHBwAAAAAAAQEBAAICAgAAAAAA/v7+APb29gD9/f0A/////wMDAwAGBgYBAwMDAAEBAQAHBwcACAgIAPz8/AD9/f0A/v7+AP7+/gD29vYA9vb2APr6+gD9/f0A////AP///wACAgL/////Af39/QD/////AwMDAQICAgD9/f0A+vr6AAAAAAAGBgYA////AP///wD+/v4A////AAICAgAAAAAA+/v7APv7+wACAgIABAQEAAAAAAD9/f0A////AAMDAwADAwMABgYGAAYGBgADAwMAAwMDAAUFBQACAgIAAQEBAAICAgADAwMAAAAAAP7+/gD8/PwA+/v7AP39/QD6+voAAgICAAoKCgD9/f0A+Pj4APj4+AD7+/sA////AAAAAAACAgIA/Pz8APz8/AABAQEADw8PAA4ODgAAAAAA+vr6APj4+AD4+PgAAQEBAAUFBQAHBwcABwcHAAgICAAEBAQA+vr6AP///wD7+/sA////AP///wACAgIA/Pz8AP7+/gD9/f0A/v7+AAQAAAAAAAAAAfz8/AD8/PwA////AAMDAwAEBAQAAgICAAUFBQADAwMA+vr6APr6+gD8/PwAAwMDAAEBAQD+/v4A/Pz8AP///wEGBgYAAAAAAAUFBQD6+voAAwMDAAAAAAD29vYA/Pz8AAEBAQD9/f0A+fn5APf39wD///8ABAQEAAAAAAD9/f0A////Af7+/gD9/f0AAAAAAQYGBgAICAgA/f39APj4+AD7+/sA+Pj4AP7+/gD4+PgAAwMDAAMDAwAGBgYABAQEAP39/QD9/f0A////AAICAgD+/v4A+/v7AP7+/gACAgIABAQEAAEBAQADAwMAAQEBAAMDAwADAwMABAQEAAUFBQAEBAQACQkJAA0NDQAODg4ACwsLAAcHBwD19fUA+vr6APv7+wABAQEABQUFAPr6+gD9/f0A+/v7AP///wADAwMA/Pz8AAUFBQABAQEAAgICAP39/QD09PQA/f39APf39wD9/f0AAgICAAICAgAEBAQAAgICAP7+/gD+/v4A/v7+AP///wACAgIABQUFAAAAAAD+/v4A////APv7+wD+/v4A/Pz8AP7+/gAEBgYGAAYGBv/8/PwBAAAA/wYGBgEHBwf+BAQEAv///wAAAAAA////AP39/QD5+fkA////AAICAv8CAgIBAAAA//z8/AH+/v7//f39AAAAAAEHBwf//v7+Afr6+v/4+PgB9vb2AAAAAAAGBgYA/v7+APr6+gACAgIACgoK/ggICAL9/f3/+fn5Afr6+v/7+/sBAAAAAAEBAf8FBQUBBwcH/wAAAAEBAQH+AgICAfv7+wD5+fkA+vr6AAcHBwAMDAwACAgIAAICAgD8/PwA/v7+AAICAgABAQEA/f39APz8/AD///8AAgICAAICAgABAQEA/f39APz8/AAAAAAA////AAAAAAAHBwcACgoK/wsLCwEMDAwACAgIAP39/QD29vYA8vLyAO7u7gD09PQA////AAAAAAD7+/v//Pz8AQAAAAADAwMABAQEAAQEBAAICAgABgYGAAMDAwD6+voA7u7uAPb29gD19fUA+vr6AAAAAAABAQEA////APz8/AABAQEA////AAAAAAD7+/sA/v7+AAYGBgAGBgYAAgIC//39/QH8/PwA+vr6AP7+/gD///8ABAMDA/4DAwMAAgIC/wQEBAAHBwf/BwcHAP////74+PgA+Pj4AAEBAQD7+/sA/Pz8AAAAAAD///8AAQEB/wICAgADAwP/////APz8/AD29vb/+/v7APr6+v8DAwMA/v7+/wAAAAAFBQUAAwMDAPz8/AD9/f0AAQEBAAcHBwAJCQn+/Pz8AP/////9/f0A+/v7/wAAAAAAAAAA/////wAAAAACAgL/BgYGAAEBAf8BAQEA+vr6AP///wAAAAAAAQEBAP7+/gD+/v4AAAAAAAgICAAAAAAA+/v7AAAAAAAFBQUAAAAAAAcHBwAHBwcABAQEAP7+/gD7+/sA+/v7AP7+/gAAAAAABQUFAAQEBAACAgL//f39APX19QD29vYA/f39APT09ADz8/MA+fn5AAICAgAAAAAA+fn5APz8/P8BAQEABQUFAAgICAAJCQkACwsLAAkJCQAHBwcA/Pz8APPz8wACAgIA+/v7APv7+wD6+voAAAAAAP///wAAAAAAAQEBAP///wD7+/sA+/v7AAEBAQACAgIABwcHAAMDAwD9/f3/+/v7AP///wD8/PwAAgICAAT+/v4B/Pz8AQEBAQACAgIAAgICAP///wD7+/sA+fn5APn5+QAAAAAA////AP7+/gD///8AAgICAP39/QAFBQUAAQEBAAEBAQAAAAAA/f39APz8/AD7+/sACQkJAAsLCwAGBgYABAQEAPv7+wD39/cA/Pz8AAAAAAD6+voABAQEAP7+/gD9/f0A/Pz8AP39/QAAAAAAAQEBAP///wD9/f0AAQEBAAMDAwABAQH/AQEBAAEBAQD9/f0A////APj4+AD6+voA/v7+AAYGBgAODg4AAAAAAPz8/AADAwMABQUFAAQEBAAICAgABQUFAAEBAQD5+fkA/v7+APr6+gD8/PwABQUFAAgICAADAwMAAQEBAP39/QD7+/sA+fn5APn5+QD6+voA/f39AAICAgD///8A+vr6APb29gD7+/sABQUFAAMDAwAEBAQACAgIAAoKCgAMDAwADg4OAAgICAD29vYA7e3tAAMDAwAAAAAA+vr6AAAAAAADAwMABwcHAAUFBQD///8AAwMDAP///wAGBgYACQkJAAYGBgD9/f0A/f39AP7+/gADAwMABwcHAAUFBQAE+vr6Afn5+f8DAwMBBgYG/////wH7+/sA+vr6AP39/QD+/v4AAAAAAAICAgADAwMA////AAAAAAD9/f0AAgIC/wMDAwEEBAT/BAQEAP///wH9/f3/AgICAQMDAwAFBQUAAwMDAPz8/AD4+PgA+fn5AP7+/gAAAAAA+Pj4AP7+/gD/////+/v7Afv7+//+/v4BAgICAAQEBP////8B+vr6/////wEBAQEAAQEBAAUFBQABAQEA+fn5APv7+wD39/cA////AP///wD9/f0ACQkJAAMDAwABAQEAAwMDAAUFBQAEBAQAAwMDAAEBAQD///8A////AAEBAQACAgIAAwMDAAYGBgAFBQUAAAAAAAICAgAKCgoABAQEAPX19QAAAAAAAAAAAP7+/gD///8A/Pz8AP///wD9/f0AAAAAAAMDAwABAQEA/f39APn5+QAICAgAAQEBAAcHBwAHBwcA+Pj4AAAAAAAEBAQABQUFAAYGBgAEBAQABAQEAAICAgD///8A/v7+AP39/QAAAAAAAgICAP///wD4+PgA9/f3APj4+AD+/v4ABAQEAAQEBAADAwMABPr6+v/6+voBCQkJAAYGBgEGBgYA+/v7AP///wACAgIABAQEAP///wADAwMABAQEAP///wD9/f0A/Pz8AP39/QEAAAAAAwMDAQICAgD+/v4AAwMDAQICAgAAAAAA+vr6APf39wD29vYA9/f3APz8/AABAQEAAAAAAPn5+QD7+/sAAgICAf///wD///8BAgICAAUFBQAEBAQB/f39APj4+AH7+/sABgYGAAYGBgAHBwcABwcHAP///wD7+/sA/Pz8AAAAAAABAQEA/v7+APr6+gAGBgYAAgICAAAAAAACAgIAAAAAAPv7+wD6+voA/v7+AP7+/gAB67ZHeAAAFrxJREFUAQEABgYGAP///wAFBQUA/v7+APn5+QAGBgYAERERAA8PDwDz8/MA6enpAPPz8wD6+voA+vr6AAAAAAAAAAAABgYGAAMDAwAKCgoABAQEAPz8/ADu7u4A+vr6AP///wAGBgYA+Pj4APDw8ADy8vIA+vr6AAAAAAAEBAQAAwMDAAEBAQD+/v4A/v7+APv7+wD6+voAAAAAAP///wD9/f0A/f39APT09AD6+voABQUFAAgICAD///8A/Pz8AAT///8BAAAA/wICAgEFBQUABQUFAP7+/gABAQEAAAAAAAICAgAAAAAAAwMDAAMDAwAAAAAA////AAEBAQD9/f0A////AP7+/v8CAgIA////AQEBAQADAwMAAgICAP7+/gD8/PwA9PT0APr6+gAAAAAAAwMDAAAAAAD+/v4AAQEBAAEBAQABAQEAAwMD/////wECAgIAAQEB/wAAAAEAAAAAAgICAAYGBgAJCQkACQkJAP///wD8/PwA+fn5AP39/QAAAAAAAwMDAAICAgD+/v4A/v7+AAICAgD///8A+/v7AAMDAwABAQEA/f39AP39/QD///8AAgICAAICAgD///8A/v7+AP7+/gABAQEA/v7+AAUFBQALCwsAAAAAAPPz8wD09PQA/f39APv7+wD9/f0AAAAAAAUFBQAHBwcACgoKAAEBAQD29vYA+fn5AP39/QD9/f0A////AAoKCgD6+voA+/v7AP7+/gD+/v4A////AP39/QD7+/sA////AAEBAQD///8ABAQEAAEBAQABAQEA/Pz8APv7+wD+/v4AAwMDAAUFBQABAQEA/v7+AP///wAEAQEBAAAAAAH+/v4A+vr6AAAAAAD7+/sA+fn5APz8/AADAwMABgYGAAUFBQD///8A/v7+AAAAAAD///8A/v7+AP///wABAQEBAwMDAAICAgAAAAAA////AP///wAAAAAAAgICAAUFBQD+/v4A/v7+AAAAAAD///8AAwMDAAUFBQADAwMA/v7+AP///wH///8A////AP39/QEFBQUACQkJAAkJCQAJCQkACQkJAAQEBAD8/PwABwcHAAgICAAAAAAAAAAAAAQEBAAEBAQAAQEBAP7+/gD9/f0A/f39AAEBAQAGBgYABwcHAAICAgD///8A/f39AP7+/gABAQEA/f39AP///wADAwMABgYGAAUFBQABAQEAAQEBAAgICAAMDAwA8vLyAPr6+gAAAAAA/v7+AP///wAAAAAA/v7+APv7+wACAgIAAQEBAAQEBAD///8A+Pj4AOzs7AAHBwcAAQEBAP39/QD7+/sA/v7+AP7+/gAAAAAA+fn5APz8/AADAwMACAgIAAoKCgAEBAQA/f39APv7+wACAgIABgYGAAEBAQACAgIAAAAAAP///wADAwMABAICAgABAQEA/Pz8APb29gD6+voA/f39APr6+gD///8AAwMDAAMDAwADAwMA/f39AP7+/gD9/f0A/v7+AP///wABAQEAAwMD/gMDAwAFBQUCAgICAAAAAAADAwMABAQEAP///wD///8ABAQEAP7+/gD+/v4A/f39AAAAAAABAQEA////AP7+/gD///8AAAAAAAAAAAACAgIABQUFAAgICAAICAgABQUFAAICAgAAAAAAAAAAAAICAgADAwMABQUFAAMDAwAHBwcAAgICAP39/QD8/PwA/v7+/wAAAAAGBgYBBQUFAAUFBQAAAAAA////AP///wD+/v4A/f39AP///wD///8A////AAICAgACAgIAAQEBAAQEBAAHBwcADw8PAPHx8QD5+fkA+vr6AP///wAAAAAA/f39APz8/AD39/cAAQEBAAAAAAABAQEAAgICAAEBAQD5+fkA9/f3AP///wD///8A/Pz8//z8/AACAgIB////AP39/QD///8A////APz8/AD+/v4A/v7+AP///wABAQEABgYGAAQEBAADAwMAAQEBAPr6+gD7+/sAAQEBAAQDAwMAAwMDAAEBAQD+/v4A+/v7AP///wABAQEAAAAAAP///wD7+/sAAAAAAP///wD+/v4AAAAAAAICAgACAgIAAwMDAAUFBQICAgIABAQEAAAAAAD9/f0AAAAAAP39/QD///8AAQEBAAUFBQACAgIA/f39APr6+gD6+voA+/v7AAAAAAD+/v4A////AAEBAQACAgIABAQEAAEBAQD///8A/Pz8AAAAAAABAQEABgYGAAAAAAD///8A/v7+AP///wACAgIABgYGAAAAAAD8/PwA+fn5AP///wELCwsADQ0NAAcHBwACAgIA/v7+AP7+/gD9/f0A/f39AP7+/gACAgIAAgICAAAAAAD8/PwA+Pj4APn5+QD8/PwAAwMDAAICAgADAwMAAwMDAAcHBwAEBAQA/f39APv7+wD6+voA/Pz8AP7+/gAAAAAABAQEAAMDAwADAwMA/f39APf39wD5+fkAAQEBAAEBAQECAgIAAwMDAP///wD///8AAAAAAP39/QD4+PgA/v7+AAQEBAADAwMAAgICAAQEBAABAQEAAwMDAAAAAAAAAAAA/Pz8AP39/QAEAQEBAAYGBgAEBAQAAQEBAAAAAAD9/f0AAAAAAP39/QD8/PwA/f39APv7+wADAwMAAAAAAAMDAwAEBAQAAwMDAAMDAwADAwP+AgICAAICAgL8/PwA/f39AP7+/gAAAAAA////AP39/QD///8AAAAAAP7+/gD8/PwA/f39AAAAAAAAAAAA/v7+AP7+/gAAAAAAAgICAAICAgAFBQUA/Pz8AP7+/gD7+/sA/f39AP39/QAAAAAA+/v7APr6+gD7+/sAAQEBAPz8/AAFBQUAAgICAAICAgABAQH/BwcHAAYGBgEDAwMA+/v7APv7+wD7+/sA/v7+AAAAAAACAgIABwcHAAYGBgD+/v4A+/v7APX19QDo6OgA/f39AAgICAD09PQA7+/vAPb29gAAAAAABwcHAAICAgD9/f0A+Pj4APf39wD7+/sAAAAAAAUFBQAFBQUAAgICAAAAAAADAwMABAQEAP///wABAQH/AAAAAAAAAAEBAQEAAAAAAP7+/gD///8AAAAAAPz8/AAAAAAAAQEBAAICAgD///8A+/v7AP39/QD///8A+/v7APz8/AD+/v4ABAEBAQAFBQUABwcHAP///wD8/PwA/f39AP///wD///8A/f39AAAAAAAAAAAAAgICAAICAgADAwMAAwMDAAICAgACAgIABQUFAgQEBAAEBAQA/f39APv7+wD///8AAQEBAP///wD8/PwA+fn5APn5+QD9/f0A////AAICAgADAwMAAQEBAP7+/gD+/v4A////AAEBAQABAQEA/f39AAAAAAD+/v4A////APX19QAICAgABAQEAPz8/AABAQEAAQEBAP///wD9/f0AAwMDAAUFBQABAQEAAAAAAQICAgD7+/sA+fn5APf39wD6+voA/Pz8AAMDAwADAwMABAQEAAcHBwAJCQkAAAAAAPf39wD4+PgA6urqAPT09AAEBAQA+fn5APT09AD+/v4ACgoKAAQEBAAFBQUABAQEAP///wD+/v4AAQEBAAEBAQAFBQUAAwMDAAAAAAD///8ABwcHAAEBAQD8/PwA/f39Af39/QD+/v4AAQEBAAEBAQAAAAAA/v7+AAICAgACAgIAAgICAAAAAAD///8AAAAAAP///wD7+/sA/Pz8APz8/AD9/f0A////AAQBAQEAAgICAAEBAQD9/f0A+fn5APr6+gD+/v4AAAAAAAEBAQADAwMABAQEAAICAgABAQEA/v7+AP7+/gAAAAAAAgICAAMDA/4FBQUADAwMAgMDAwD6+voA+fn5APz8/AABAQEA/f39AP///wD5+fkA/Pz8AAMDAwAHBwcAAgICAP///wABAQEAAAAAAP///wD+/v4AAAAAAP7+/gD+/v4A/f39AP///wAAAAAA/v7+AAUFBQADAwMABwcHAAQEBAD///8A/Pz8AP7+/gACAgIAAgICAP7+/v/39/cA+Pj4Af7+/gD7+/sA+vr6APr6+gADAwMABwcHAAkJCQD+/v4AAQEBAAYGBgD///8A+vr6APj4+AD4+PgAAAAAAPz8/AD7+/sABAQEAAcHBwD+/v4A/f39AAAAAAD///8AAQEBAAQEBAACAgIABAQEAAICAgD+/v4AAQEBAAAAAAAAAAAAAAAAAP7+/v/9/f0A/Pz8AQAAAAADAwMAAQEBAAICAgACAgIAAAAAAPz8/AD+/v4AAwMDAAYGBgAEBAQA+/v7APz8/AD9/f0A/f39AP7+/gAE/Pz8APz8/AACAgIA+vr6APv7+wD7+/sA////AAMDAwAFBQUABQUFAAICAgAAAAAA////AP7+/gD+/v4A/v7+AAMDAwAJCQkCBAQEAAkJCQADAwMA/v7+APb29gD4+PgAAQEBAAICAgACAgIAAQEBAAEBAQADAwMABQUFAP7+/gD+/v4AAAAAAAICAgD+/v4A/Pz8AAAAAAADAwMAAQEBAAMDAwADAwMAAgICAP7+/gD6+voAAwMDAAUFBQAFBQUA/f39AP39/QD6+voAAwMDAAQEBAD+/v4B+/v7AP39/QABAQEAAAAAAPz8/AD8/PwA/f39AAMDAwAAAAAAAAAAAP7+/gD8/PwA+/v7AP39/QD9/f0AAAAAAAAAAAD///8ABAQEAAQEBAACAgIA////APz8/AD8/PwA+fn5APv7+wAAAAAAAgICAP///wD+/v4A/f39AP39/QD9/f0A////AAEBAQAHBwcBBQUFAPv7+wD7+/sA/v7+AAICAgABAQEAAQEBAPz8/AD///8ABAQEAAUFBQAMDAwABwcHAPb29gD4+PgA/f39APz8/AD+/v4ABPz8/AD6+vr/AgICAQEBAQADAwMABQUFAP7+/gACAgIABAQEAAICAgD+/v4A////AAEBAQABAQEAAQEBAAMDAwAEBAQAAQEB//7+/gD7+/sB+/v7APT09ADx8fEA9fX1AAICAgAGBgYAAQEBAAICAgAEBAQABQUFAAMDAwD///8A////AAAAAAD7+/v/+vr6Afv7+wAEBAT/BwcHAQgICAAHBwcABgYGAAEBAQD09PQA8PDwAPn5+QAFBQUABwcHAAAAAAD9/f0A/v7+AAICAgABAQEAAwMDAPv7+wD+/v4AAAAAAAICAgABAQEAAgICAAMDAwAGBgYABwcHAAQEBAD9/f0A+Pj4APPz8wD29vYA/v7+AAQEBAAEBAQABAQEAAICAgADAwMA////APz8/AD6+voA+fn5APj4+AD9/f0AAwMDAP39/QADAwMAAAAAAP7+/gD+/v4A/v7+AAQEBAAHBwcACAgIAAICAgD39/cA8/PzAPLy8gD8/PwAAgICAP39/QAAAAAAAgICAAYGBgAKCgoACgoKAAICAgD+/v4A+fn5AP39/QACAgIAAQEBAAT9/f0A/Pz8Afv7+wACAgIABAQEAAEBAQD9/f0AAAAAAP7+/gAAAAAA////AAEBAQAAAAAAAgICAAMDAwACAgIABAQEAAEBAQH6+voA8/PzAP39/QD09PQA+fn5AP39/QD9/f0A/f39AAEBAQD+/v4AAgICAAICAgAAAAAAAwMDAAEBAQD+/v4A/Pz8Afz8/AD///8AAgICAQcHBwAMDAwACQkJAAUFBQAAAAAA/Pz8AAYGBgD8/PwA+vr6AP7+/gABAQEA////AAEBAQD9/f0A/v7+AAICAgAGBgYABQUFAAAAAAABAQEA/Pz8AAICAgACAgIABQUFAAAAAAD9/f0A+/v7APb29gDz8/MA+Pj4AAEBAQAFBQUA/Pz8AAICAgACAgIAAgICAPn5+QACAgIA////APr6+gD5+fkA/v7+AAQEBAD9/f0AAgICAP7+/gAAAAAAAAAAAAMDAwAFBQUABwcHAAoKCgABAQEA/Pz8AAICAgD///8A/v7+APr6+gD8/PwABAQEAAsLCwAJCQkAAwMDAPj4+AD4+PgA7+/vAPb29gD+/v4ABQUFAP///wAEERERAPf39/8CAgIBAgIC/wMDAwEAAAAA/v7+AP///wAAAAAABAQEAAUFBQACAgIA/v7+AAAAAP8BAQEBAwMD/wQEBAEEBAT/AQEBAAEBAQEBAQH/DQ0NAQ4ODv////8B+/v7APj4+AD6+voA/v7+AAUFBQAGBgYABgYGAAMDAwACAgL/////Afr6+v/5+fkB/v7+AAcHB/8MDAwBBwcH/wMDAwH///8A////AAwMDAAEBAQA+vr6APz8/AD9/f0AAAAAAAICAgADAwMABAQEAAQEBAAEBAQAAwMDAAICAgD9/f0A+vr6APr6+gD+/v4ABQUFAAYGBgACAgIA/v7+APz8/AAJCQkAAgICAAwMDAACAgIA////APz8/AD8/PwAAQEBAAICAgAFBQUABQUFAAQEBAD///8A+/v7AP///wADAwMABAQEAP///wD8/PwA/f39AAAAAAAEBAQACAgIAAcHBwACAgIA/Pz8AP7+/gAFBQUADg4OAP39/QD+/v4AAQEBAAoKCgAPDw8ADQ0NAAICAgD29vYA8/PzAP39/QAPDw8AAQEBAAAAAAAHBwcABEdHRwDo6OgB/v7+AAEBAQEDAwMAAQEBAP///wD///8AAQEBAAQEBAAGBgYAAgICAP39/QD///8B////AAICAgEDAwMAAgICAQEBAQD///8A/v7+AQEBAQAEBAQBAgICAPv7+wD29vYA+fn5AP39/QAEBAQABAQEAAQEBAAEBAQAAwMDAQEBAQD9/f0B/f39AP///wACAgIBBgYGAAEBAQH8/PwA/f39AP///wACAgIAAgICAAAAAAD9/f0A/f39AAAAAAABAQEAAwMDAAMDAwACAgIABAQEAAICAgD///8A+/v7APj4+AD9/f0AAQEBAAUFBQAFBQUA////APv7+wD9/f0AAAAAAP///wABAQEAAQEBAP39/QD4+PgA+/v7AAAAAAADAwMABQUFAAYGBgAFBQUAAQEBAP39/QAAAAAAAgICAAICAgD///8A+/v7APz8/AD///8AAwMDAAQEBAABAQEAAAAAAP39/QD5+fkA/f39AAAAAAD+/v4A/f39AAAAAAAJCQkADAwMAAcHBwD8/PwA9fX1APj4+AACAgIABwcHAAICAgD8/PwAMDAwAAAAAAAAAAAAAAAAAAAAAAAAAAAAAAAAAAAAAAAAAAAAAAAAAAAAAAAAAAAAAAAAAAAAAAAAAAAAAAAAAAAAAAAAAAAAAAAAAAAAAAAAAAAAAAAAAAAAAAAAAAAAAAAAAAAAAAAAAAAAAAAAAAAAAAAAAAAAAAAAAAAAAAAAAAAAAAAAAAAAAAAAAAAAAAAAAAAAAAAAAAAAAAAAAAAAAAAAAAAAAAAAAAAAAAAAAAAAAAAAAAAAAAAAAAAAAAAAAAAAAAAAAAAAAAAAAAAAAAAAAAAAAAAAAAAAAAAAAAAAAAAAAAAAAAAAAAAAAAAAAAAAAAAAAAAAAAAAAAAAAAAAAAAAAAAAAAAAAAAAAAAAAAAAAAAAAAAAAAAAAAAAAAAAAAAAAAAAAAAAAAAAAAAAAAAAAAAAAAAAAAAAAAAAAAAAAAAAAAAAAAAAAAAAAAAAAAAAAAAAAAAAAAAAAAAAAAAAAAAAAAAAAAAAAAAAAAAAAAAAAAAAAAAAAAAAAAAAAAAAAAAAAAAAAAAAAAAAAAAAAAAAAAAAAAAAAAAAAAAAAAAAAAAAAAAAAAAAAAAI/hosqK7ErAAAAABJRU5ErkJggg==;" vertex="1" parent="1">
          <mxGeometry x="165" y="200" width="80" height="80" as="geometry" />
        </mxCell>
        <mxCell id="OrTmt1RVUYFcJPQC6j06-17" value="SAR图像" style="text;html=1;align=center;verticalAlign=middle;whiteSpace=wrap;rounded=0;" vertex="1" parent="1">
          <mxGeometry x="175" y="280" width="60" height="30" as="geometry" />
        </mxCell>
        <mxCell id="OrTmt1RVUYFcJPQC6j06-18" value="&lt;span style=&quot;background-color: initial;&quot;&gt;编码器&lt;/span&gt;" style="rounded=0;whiteSpace=wrap;html=1;fillColor=#dae8fc;strokeColor=#6c8ebf;fontSize=15;" vertex="1" parent="1">
          <mxGeometry x="300" y="311" width="110" height="40" as="geometry" />
        </mxCell>
        <mxCell id="OrTmt1RVUYFcJPQC6j06-20" value="" style="endArrow=classic;html=1;rounded=0;entryX=0.306;entryY=0.85;entryDx=0;entryDy=0;entryPerimeter=0;" edge="1" parent="1">
          <mxGeometry width="50" height="50" relative="1" as="geometry">
            <mxPoint x="214" y="321.5" as="sourcePoint" />
            <mxPoint x="288.94000000000005" y="321.5" as="targetPoint" />
          </mxGeometry>
        </mxCell>
        <mxCell id="OrTmt1RVUYFcJPQC6j06-21" value="查询集" style="text;html=1;align=center;verticalAlign=middle;whiteSpace=wrap;rounded=0;fontStyle=1" vertex="1" parent="1">
          <mxGeometry x="163" y="310" width="60" height="24" as="geometry" />
        </mxCell>
        <mxCell id="OrTmt1RVUYFcJPQC6j06-24" value="" style="endArrow=classic;html=1;rounded=0;entryX=0.306;entryY=0.85;entryDx=0;entryDy=0;entryPerimeter=0;" edge="1" parent="1">
          <mxGeometry width="50" height="50" relative="1" as="geometry">
            <mxPoint x="214" y="345.5" as="sourcePoint" />
            <mxPoint x="288.94000000000005" y="345.5" as="targetPoint" />
          </mxGeometry>
        </mxCell>
        <mxCell id="OrTmt1RVUYFcJPQC6j06-25" value="支持集" style="text;html=1;align=center;verticalAlign=middle;whiteSpace=wrap;rounded=0;fontStyle=1" vertex="1" parent="1">
          <mxGeometry x="161" y="332" width="60" height="24" as="geometry" />
        </mxCell>
        <mxCell id="OrTmt1RVUYFcJPQC6j06-29" value="" style="shape=image;verticalLabelPosition=bottom;labelBackgroundColor=default;verticalAlign=top;aspect=fixed;imageAspect=0;image=data:image/png,iVBORw0KGgoAAAANSUhEUgAAAZwAAADgCAIAAAC4tEdgAAAgAElEQVR4Ae29iXMjWX7nN7L0x6zWmvGOtBEOR9iemF3ZlkOra2VpZy1ZG5IVCm04vJK9613JkpvVPTPds9JoZnp6juqq6Z4mWUcXi0US4A0CxH3mfeC+7/u+MpGXI5FVGBQIgiCLZCHBl/ErViKRyHzv+15+8p2/9wVpyTexWw1vfveHB1Civ+QxBdEDCgAFZAW+sPQyCDxTL5Wb3YGw9FEFEQQKAAXuAtRAKgMFgAJ3SoHlL6ndqeQEkQUKAAUA1EAeAAoABZZKAQC1pUpOEBmgAFAAQA3kAaAAUGCpFABQW6rkBJEBCgAFrgdqg8Gg3Wq21GztVqvT6QgCGPgBHgqggLoVuAaosSwbDUcghwd2IWo1J+yyOTAY7na7o/QURbHX7TbrDfVuzUaj2Wh0Ox1RFEfxAjtAgeVW4E2hxrJsKBiynNg8JyRs8KnRIIPPcujce7FvONa3mk0lvUVRrNdqJOrGXHrCY8BVaITHgLkNdrOBQFGO45Y7H4PYAQVGCrwR1Jh+PzwkGmLwey1pryXjU5t5LWlIT+u1puMXRrPO0mrJUBNFsVat4pA15Fmrhx42Iw+bYbVZ5EE9/NDvWjXsrdmMhgHLjpIc7AAFlluBq0ONYZig3289sSOngSHR0qr7S1vSHj11ojXqt+ynW24FaqIoVisVDLJFkDU2+bGUu69GG2TvJ/DP4NNPsdMPXZaTATtY7nwMYgcUGClwRaixDDMso9nhl2U0FRLNnPLo6RONTDTLNmHc8phPLM1mQy6jwdYQtM4kVYkzKXefy9xPEj/1nH4atP1dyP6B23rCAqiNsjzYWXYFrgI1juNCgeDJgc5y4HSfEG6dKs1+BJ1oT/VbNss2YdkmZajpzJl0CoNsAc+jTvTBIHV/kPpYXcalPmaTD5LYZx7DpyH73+XglbD9fQC1ZX+KQfxeU+AqUOt2OuZT4/ELvX7HrFozHW4dHW+ZhkR7CTXdrs5sODEdPaPsawH3asClSiNt6279T4M2mWh5eAWU1F7L7+DDHVDgKlDrtNsWvcWlCXh2Iyo1tzZo2LKdbFl/BrVtz/7WoX73cdj1URL+UKWWgD6EDJ9gpx/loHsK1MLD6idoU7sDzzKI4ksF3gBq2oBnN6pOqEXd2pBhexJqe1uHtuPP2Mh7UvIdKaFKE+IrYddHuPHDHLwygprTfNRpt8G4YvDQ3xEF3hBqai6pTYWa7jMm8p4UX1GpCbF7oTNQOz3cpnAil82yLCuBUbh35Mm+w9EEUCNedhRse+SSmu4zJrxsULMa9sOhEI6ioUCg3wdeze/w4343og6gtvxQc9tOGIaRJ0jgeDgYlMtrYAMKLK8CV4JapyN3FMhtastY/Vy6kpoypEMUxVazSWBYMpEA7WvL+0SDmF1p4ZVOp23RmwHUFrDdbWqb2micmiiKxUIBcrvr9TqY4g6e/mVV4HIlNUEQOu12PBrVH5wAqKkOapIk8TwfDgQCPh+YDbqsjzSI1yWgpkzzpggCgTwn+zoANTVCTZKkdrsNu92lYhEU1sDzv5QKXAJqrVYLR9FYJFKrVs2g+rmQwz7OVj+HMwp043M/BUGIhsM0SbIMs5R5GkTqjiswL9R4jvPRdMDrZRimu4QdBbh+26o70Dv060szpCOPvJODVojT70J282DwmpeORr2OQlC5VAKFtTv+/C9l9OeCmtzAXCyiMNwc+lB8OU1qeXo/ccOOw2F2hoJhxLKxJFBDVrLwitf8Dy7jTi6TnoAXz/NBvz/g9wPnkUv5VN/xSM0FNZZlaZJMxGLKUIBlgpp5G9dv25xmZ6lYrFbriPV5P6TywbdOeZpUFl6hTP/gMmmz6TTP82dzeblYxBGk2Wic/QocAQqoWoGLoSaKYrlUgt3uTrutRHVpoKbbsihltGKhIAhCrdZArOovqTk/wozfpy0y0dKp1FSiSZLEsiyJYalEQgRrzaj6CQaBP6PAxVAbDAbBQCAUDI6qMMvipcN68OLYbnKUSiWlBDoONTG+okYTYvfCzo+Me584TZpsZnoZTckDgiAk43EKx0F3wZmHAhxQtwIXQ63VbMIeT6NeH0W0026bTk5PNi36F3b9C5sKzX7ywnqweWg1msdHNtTrdevJC7/1w7DjeyF1WtDxoeP4J6e6g9lEU5Ky2WzCbrfSTjpKXLADFFC7AhdATRCEVCJBYth4i/JgMEgmEqFAIBQIqtcioXC1XBmfMMQwTCwaDQf84WBAtSYHvlgonFfrHM+vg2FTaTqVGpXBx78F+0ABlSpwAdQGgwFFEIlYbCLfi8IybBORkiRJEJYhZmfjNTV3CoKQSaUoghh/Y009ExwECqhIgQug1qjXYbe7WqmoKEogqPMr0Gw0oLEuoPl/CM4ECiysAjOhJopy3RPH+73ewkYABOxNFOgzDIFhhXx+zsLdm9wL/BYocDsKzIIaz/M+igoHg6DX/3YS4/bvwvN8KBCIhMPjbYu3HwxwR6DANSowC2rdbhdH0Vwmc433A5daNAUKuRyF4wyYB7poCQPCc1UFZkGtWqmAQedXFVY1v2s1myCVVZNaIKBzKHAu1ERRzKbTBIYBx1tzyKjiU1iWxRCkCDwRqTgNQdBfU+BcqCkOaiKhEGhteU2wZfygTOydZ2jbMsYexGnZFDgXatzQ11AmPengYdkEAPGRpEQs5h86lQJiAAWWQIFzocYwDAJBlXIZdPYvQTLPjkK5VCJQdOSwYPbJ4FugwIIrcC7U6rWax+nsdrsLHgEQvDdXoNvpwG73+PTeN78muAJQ4G0pMB1qoiimkkmKICY8pr6tUIL73qgCg8EA9nhKhQIold+ozuDit6PAdKgJghAKBOKvvELeTlDAXd6WAhzHUQSRSiRAX8HbSgJw32tUYDrUeJ4nMCyfy4FX9zVqvbCXEng+EgqFAgHu9aUMFjbAIGBAgRkKTIcayzAeh6Neq834JfhqaRQQRTGTTpPAYeTSpOjdjsh0qLVbLcjlAr0EdydvVCsVxOPpAc8FdyfJlzemU6AmimK1UiFQFMwHXN50n4xZq9lEIag+5t948gzwGSigEgWmQy2bydAUBbo+VZKI1xDMbqdD4TjwQXQNUoJLvG0FpkMtEY+HAgHQF/a2U+f27s/0+z6aTieToGvo9kQHd7oZBaZATeD5gM+XiEaBG7Wb0XwRr6qsGRaNRECiL2LygDBdRoEpUGNZlsLxXDZ7meuAc9WtAM/z0XA44PMB/wXqTkgQekmaArVut0vieKVcBvrcKQXkZUAJQpi2nPud0gFEVu0KTIFap92mSRIMUpMkSVyWbZ5smk2ncQQB42/n0Qqcs8gKTIFao9EgMAyscSvwfKlUSiZSqWRavZZOpUqFwjyVymKhgCNIv99f5PwKwgYUuFCBKVCrVav4JR3RcByXzWRCAb+aLRDy+9OplLIIJsdxqWTSYz2gHE99blWa3/0UsWwc775wWK3zjM6pVCo4irZbrQszDTgBKLDICkyBWqlYxFGUmfuNzXFcLBLRGe1aM6K1YKo0K6Y1OLa3NDazmWEYjuOT8QRs28/Tn3Dp+3zmPqc6y/64HXtI2tfMB584zPoBO7gwFzbqdQLDGmBu3IVKgRMWW4EpUCvk8wSKzvNulyRpMGDjsZhMNE90ly7vUio0uqxFk9t6+zPNkcVi63W7qWQSsu7nyE+EzH0pq0LL3e/GH9LOdY/hY8r0bbf1ZB6otVst0EG02E8rCN1cCkyBWiadJlB0nlYYuYwWjR4bHVoouktXdr1qtOoult7RO54dWtaPPSaLPRoOw7a9HPUJr1KiZe/34g8p+zpk+Dju+kbY/r7besLOUVLrdjokQZRLpbkyDjgJKLCoCkxCTRTFeCxG4viFAeYGg1g0dmyyy0TzVtVplZdEOzCvGb3rBkK7e2gzaOPoT7uxB734g15MZdaPP2hGfkI51j36j+Oub+bhlZD9gzmh1ut2KYIoFgoXJj04ASiwyApMQk3g+Vg06vd6ZwdaWWvq+MSotZO7aHIXTanRtFBk58T++aF13ehdtYQeGbDt7a3T/Ucu/arndNVzuqZCW7XqHrv1D+Kub+bglTy8Ep4bav1ejyKIQj4vieLs1AffAgUWWYFJqHEcFwmFAn7/7ED3er3j45PnuyebR5bNI6sq7dDyYle3sXc6JFp41RJa12Onx0+q9Aft4DfaARVa8Bst/zdp24+w0w9z8MplocYyDE0QuWwWTP+cnfnBtwuuwBSohQKBUCAwO9zdTkd7ZFy3hteciTWHKm3dEf9c5/r8yLZqlYmmQM2se8SE7kmJd6TEihpNiN8Luz7Cja9BzWrYK+TzvW53toeCAcvSJJnNZADUZmd+8O2CKzAJtcFgEPL7I6HQ7HDLUDs2rTlTq57iqqegTss/1SNnodYPvSvFV1RqQuxe6AzUTo+2UQiG3e5IKNQ7f3kweaUCkgQrvc7O+eDbxVdgEmosywZ8vlg4PDvoL6HmUDPU3Lk7AjWXRddqtgr5PE2SGILkstmpRTae52mKAt6HZud88O3iKzAFakG/Px6LzQ46gNpiFuWmltSU3k9RFFmWTSWTCASlU6mzE9cFQfDRdDKRANXP2ZkffLvgCkxCjWEYv9ebTCRmhxtATXVQUxJUEIRqtYohyGhC2CihBUEI+HzxWAxAbaQJ2FGjAmeg1u/7vd50KjU7MgBqKoWa4nqkVCwiEDTR0SkIQjAQiIbDAGqzMz/4dsEVmIRav9ejKSqTycwItyiKjUZDc2RcA21qC9alMKP6OZGg6VQK9njqtdoIYYIghIPBcDA4z2SSiauBj0CBxVFgEmq9Xo8myfPc3nIcVy6XvTTtcTo3907U3ft5ZzoKps4okP13+/0+imJZVsmOgiBEwuFQMDi1G2FxsiwICVBgtgJnoDacK5Of5su72+36vV7E40nE47lMZhlLarhZ92jJhnQErd9ymnVT53522m0MhjOplFJYE0UxFokE/X6e42ZnGvAtUGCRFZiEmjyrebhU2kSgu90uTZIkhtWrVUEQlrNN7QRdJqjl4XeS7vfcJz/GYLfiJG4iTUVRLOTzKAwrq1aLopiIxQI+39STJ34LPgIFFlaBSah1Oh0Cw0rF4niIGYbx0XTA7+/1espbfemgFl43ej/fM1mOV5nwe4vZCTBPqEZtanlkJeV+D9L/EHVbG43GqOFsPFklSWJZlsQweWyaIIiimEok/F7vnF6nJi4FPgIFFkSBSai1220CRavV6ih8HMdFw2EMQcYHoy8Z1NaM3hfHduOp2WV4tBxQk4lm+BHsMjfqdVE6d4K6KIr5XA5H0V63K4piOpn00TSA2ijzgx01KnAGaq0WhiC1EdREsVwqwW73xDosSwQ1+5rJt3lkRWA0ncog1o1+SPUlNcTwA8/JsIxWP7eMNsqsLMNgCJLPZgWez6TTXooavOo6GJ0DdoACKlJgEmqtVguF4Xq9rsSh1+uROJ6IxyfqLy+hpv65n8/2jc+PrTCMtFuteq0BWzY6wXcHsXdUamx0JeT8SKd9hLiszUbz/CLaa1k0mUh4Karf6+WyWZokWYZ57WvwASigKgXOQK3ZRGG42WgoozQTsRiGIN1OZyJS3U5Hc3i6Zg2vOZJrTnWaI/H02LWzs4tieLvdFkWx2WjYTcce01PI/BQyf65Ck4NtOdmE3a7m+e1oE0kpSVK73Ybc7nq1WioWSRwHC0qdlQgcUZECk1BrDqHWbrclSep2uwSGpZLJiWKaJEm9Xs9stpyYHXqLW7Xm0hstGAIrkZXXW2DZWrVaLpXVa5VSuVIuyy+hyzh65DiOxLBUIiEvJIYgvV5PRTkYBBUoMKHAJNQa9Trsdiu9nLlMhsQwpb9/4meCINRrtVq1WqtW6+o0OfC16qg/92UERVHGgdptIrUu+igIQjKRoEmy2WjAHk9n+Eq76Efge6DAgiowCbVqpQK5XCzLyt61CCIBpjcvaMJdc7Dq9ToKQeVSCXK5Ws3mNV8dXG4hFRBFsdVqlkulC61aqdz06EWO46pyPalUnr2VSs1m82zdcVzgSajJU509nsFg0Gw0ILcbLG07LtYS7yvT49LJJOzxVMvlK8d0MBi0ms1KuVwsFvO5HLCpChQLhUq53KjXWYaZ/XxeOSHm+SHP837aqz/Qnx6YjQeW88ywf2o5Nd30q67b7WII4rLbURieYW67HUOQs46zxuP7GtREUZSrnDg+GAzi0ShNUTeN5/GggP23qADHcfJs9lCIwLAJ7x3zhEqZZJKIxVAYNur1B1qtdmtL++KFBtgZBbQvXmi3tva1WoNOJ7sjDoebjcZbcSIguwUlKJPG5dIG3dqwWxuaZmHbDmk6tDSGnYfzZIarndPpdKjhEhmDmVsxn4c9ntnTk1+Dmty2Eo/7KIphGBxB0snkW9H6aqKAX72hAulkksRxmiST8fil0p1lmGQ87rBa9zWafY3GfHqKeDwUQfi9Xj9NAzurAE0QCARZjMZ9rXZvZ8diNMai0cnm3TdMzjl+/hJqWrdHG/bsRqYatBt1aCjz0S1BrVgozC66KsNmLwM1no9GIuFgsNloeJxOUPecI2MszymlQgFDEJokI6HQ7EwzHuder+ej6cPd3YPdXdjtzmUy7VaLYRhuMODBdo4C3GDAMEy73S4WCgSGHR8c7Gs0KAS1Wq1xbW96fz6oRRw7lPm2SmrXDzWe5wN+fywaLeTzFEGMnNLctLjg+ougQKPRIDCMHpaw5mx2kEv0KLqv0VjN5mw6zbLs7NfsIkRz0cLAcVwhn7dbrXvb23IvTat1axreCahxHOej6XQqlUwkwsCv1qJl/xsOj+yghSB8Xi+OovO8z1iW9Xm9ezs7Lru9Xq/f2qN4wzK8hcuLotgeTk/c02gQj2d8kvVNhEYURZ7nOY5jmD6Fk6YLqp8qL6lxgwGBYdnhBMDkmalRN6EvuObiKKCs0B6LRDxO59TBieNBVWa/H2i1NrO5CYg2Ls1V99utltNm293ejkYil2rTnPOGoigy/X69Xs9ns+FgkMRxDIaNJwbjjmtmm5rKocYyjNIsQhHEhPehOYUDp6lXAXa4mHEqmYRcrlq1Orvk1el0HFbr4e5uNpO51OwF9epz0yEXBCGXzeoOD00Gg+w/4jJzQmaHTRCEdquViMVokkQhiMCwaCSSTadLxQLigUya2R0FKodau9VCPJ5cNksSxE334M5OBvDt7Ssgt7BQVCoeJ3E8l83OKCyIopiMxw+0WtjjAbPfrzGlOI7zUpR2ayscCMzfVzMjAKIodrvdWCSCwTCBYYlYrNloDFhWGLrP4zmOJpa9+lkulUgMK+TzBIaNZkTOkAx8tUwKCILg93rjkYi8mnUkMmN8I8dxiMdzsLubTiaXSYFFiEupWDze33fZ7W/essZxXLFYJFDUS1HFQuHsQN870VGQSia9FKVADcxqXoQsfpthEAQhFAhEQqFYNOqj6RkdoO1Wy2QwGHQ68Oa79gTqdrt2q1V3cPAzn4ZXuke/3w8FAnLFK5M5z0HenYBaOBgMBQKFfB5HEKbfv5KY4EdqVUAUhGg4HAoEckNfuMz5XtXKpdLJ0ZHTZgM+cq89sTmOQ2H4QKu9wrwOJTDyjM5mkyZJiiBmT5NUoGaW29RCnt3weXabg2/zudxgMODOM44rFgqIxzOjGiFJ0mszCiiCSCUS8oBAFD2P7teeiuCCC6LAaOGVSrmMo+iMuX7ZTOb44ACBIG4wWJDAL00wBEHwUtSBVnvZeR0jBVqtFkkQQb+/0+nM7u3heR6D0b0XBwdb+oMtw3m2v3l8vHs0chw7utH17rSaTbvFYjWZIJdrhtlMJrfDMbvB8TWoYTCczWRyuRyGILN/dr3xAVdbBAXkURqplM/rbTabJIaVS6XzHol0Mnm0v09g2Iwq6iLESI1hEAQh6Pcf7u5Gw+ErPIPKGkk0Sc7TfMTzPI7h27unW4furSPoPHuxZz881DdeecO+IVXbrZbLbofcbi9NeylqutE05HZ7nM7ZyrwGNRxBKuVyOpUiMOy8DH1DUQKXfesKyO4MslmaIHrD5RCTicR5eUCG2t4eiWFghdBrT7U3gZooipnhwzun32Oe5ymKPjQSx568DirqPIUpBhUPbTH9qaNRl71h39ymTGgv5PM8zwvnmSAoboTmrX7WajWl0pGIxymCuLnQgysvpgKiKFYrFRSGe71eOBQK+v3nFcQA1G4uBd8Eap12G0eQQj5/3ttoIthDqFE/gxpUlNF2xo7s8VuD2jXP/czncjRJ9vv9WCTi9/km4g8+3gUFet2u4iQyl81SBHF2bQpFBAC1m8sMV4aa3CQajyuP8JzBW3KoiaIYj0ZDgQDLMEG/PxwMzqkLOG2ZFOA5DkeQYqHQajYxGD5vVAGA2s0l+pWhpgzcnXN2ozjceI57rfp5poymlNrUWlLjOM7v9aaSyV63S5FkOpW6uWQDV15YBZShavFoVHG/kUmnp1ZkANRuLgWvDLVer0cRRLFQmBo2ZRI7y7L9fr/Tbteq1VKhUMjl3E7XgRF/2aa2ZFDr9/sYgpRLpWajgUDQTfd0TNUdHHzrCoiimM1kaJJkGCYSCgV8vqnNagBqN5dSV4Zao16nCGLiyRUEgWXZVrNZzOdjkQiJ45DL5XE6EQjCYJjEMNOp8eAUP4YKZ5vSRkfUWlJTVn7sdjrywituN5jQd3O5dsGvLOeEoVcvuZsJgqauAQqgdnOJeEWoiWKlXPZS1Mi9Cs/z9Xo9Ho1SBAG73RgMBwOBbCbTqNd7vZ4ywJVhGJIgl7OjQBTFYqGAwTDHcZlUCkfRqe/n2QnJ8zyr/m0i4hzHqT9O8sJgs9Nu/FuO4wgMy6TTnXYbgaCpzWoAauOKXe/+1aCmeIJSHLtyg0G1Ugn4fIjHQ1NUOpVqt1o8zyvtaOOhXeaOAp7nI+FwKBhUWtau4M5pMBhEw2GXw+Gw2dRqdrvNYqFJ8uXUH1Hqdjp+mkDdJsxjVqPhkBlzm51WM02S83NNFIT4cO6nMnkwGg6fbVYDUBtHw/XuXw1qTL8f8HqTiUSn3VamfEbD4XqtNhgMzibfKMDLDDWWYQgULRWLvW4Xg+HKJVdI4waDWDSqOzra2d5WsW1tbX7+udVoZIarlnXaHR+JkI4nWeonRe/DAq028z7MUz+h7Z8dax5ZjIZLTXpTRqvJDTGFAgrDZyd4AqiNuHDtO1eAmiiKpWKRxLBiseijaRJFy6XSPK+xIdReDb6Fp4xQk5vV4NLttamRZLFQUNwiKeXKs3/LpdJccz9bzSbi8fR7PXl0Eo5fyueJTLRwWHd0tKvV7qp202o0W5ubTx8/tphMDMN0Ox0vAXtdTzvxB2Lux2L2vupMyNzPUZ+6TlZduh+5LCcD9hKTNFmGIXE8mUi0Wy0UhquVysTbHkDt2lk2uuAVoNZutSiCiA2XTPJSVK/bnUiv0cUndnieJwly/9h+YPIemn3n2b4e0+nME10QE5d684/tdhvxeII+Xz6bzZ1vAa/34mlSoigqHocGg4GXpsPDSuicQRywbCwS0R0e7mo0qgXarlaj2R4SbW1tzWwy1Wt1H4nQzifd+AMpd1/Kqs+EzP08/YnjZJU0fS9o+5bbqmMvAzVJkjKpFInjrVYr4PNFQqEJh5EAanM+IFc47bJQYxgm4PPRJFkpl+lLOqzmeR6BoM1nmxufz7bne9pd2RnvTW6tZtNiMumPj82npzNMf3jostsvmPv5csxeItFsNGC3e/6652AwCAeDJ8fHS1BGe/L48drq6tramu7oCIcdAc/TbvyBkLsvqtCEzP0s+anjZM1r/m4Wuheyv++2nlwWav1eD4XhbDpdLBRwFJ0ovAOo3dzTfSmosSyrrDbQbDblsTgE0e/15g8bz/MEhj17+lTO/Ofb+travlZ70yW1Tqcj91ClUr1ud4Zl0mnY7b4Aas1mE0OQSqWSjMdpgphzMIfSt3B8eKjZ2dFqNGq1nZ2t588Voq2urj5aX9/ZfG482vC71xL4T+PYZ2ozOcxBz6rjZJUyfS8LvZuDV0L2D64ANXlZ60SCQNFms4nCcCGXG6/RAKjND47Lnjkn1ERR7HW7oUCAxPH6cFO8dU+UqWffXa5+4vizp09XZ25rq6sHu7s37d9fntBOkqVicTynnQ1/pVy+GGrpVIomyUa9Tgwdec++4ugevV5Pd3i4+ezZ5saGSu3FxsbW8+fPnjxZe5Wij9YfHe48oqw/Cjhk86vN5DDbf2Q7/gzS/ygL3cvDK3l4JXwlqEmS1O12laXFopGIl6bHfUYCqI0ehGvfmQdqHMfJlU2SpEmyWqkUcjkCRaPh8HgazROwtw41bjAYUVjx0nE9E9q9JBkJh5PxOHYZb7fdTkezvb2+vr6+tqZSe7S+/uzp0yePH79i2ur62iPTwaed4Ne52L1B9F3VGRe9x0beCzp+QBg/zMEruTeDmiiKhXwecrnyuRzkdo+7VwNQmwcZVztnBLVwIDAYrnI/3hvIDQbNZjMSCkFOp5+mM6mUj6JgjyedSl2qg1sJ2/xQ27+BkppS25OnZvZ6oiheJ9QwBEklEojHc2HBbzyRup2Odnt7VMYZcUFFO2tra8+ePHn6OtTMB5/0Q+9K8RWVmhC7F3J9hF8H1CRJ4gaDoM/n93p9NO0lydEKxwBq48/C9e4rUNvb2bGaTDRJ+r3ecDCYiMcz6XR6uISIw2azmEyw240jCI4gsWi00Wgo+OPHN+7ibcCyOIrOU/3c12qrlcqAZa/R+r2e02bTbm25HI5UIlGtVJS5q7Mri+VS6eLqJ0UQPooK+v2jcuA8iQSgtpjUu16oyZXQTgeFIHo41WbUsqYqqImiwLNMnxnwgiDI/8R5MvhbO0eGWiCg3dra2thQbHtjY2dzc3d7e3drS/PixdHe3vH+/r5GY9DpUBiW3zcUpVRFSQzDEQSDYWz4F4XhGaacpj8+/mEdDDIAACAASURBVHzsvT61ULK+trbz4oXb4UA8nms02O0+2ttT4riv0bjsdo/TeT3VTwxBrrAgHoDaHYGaJEnKu9FhtSIeT6fTkSRJPVATO7UMbNEf7B/o9HqT0WCBfcWu8NaINceNx6G28/z5zvPn20Pb2thQdpS/MuZ2dgw6Hex2B32+ZCKRTadlX/xDy2ezhVyukM+fZ8V8vlQslopFt9P5+RwdBbsaTSIeL5dK12iFXM58err17Nm+RuOwWiOhkOL26hpKaggEVcrl2Rc6mxYAancHaoIg5HM5h9VqOD4O+P2DwUAlUBN7Zf+jb/+n/+1///c/fqrd+PFffeVLv/R7f/PA37zEOOSzOf+mj/wMagrOXmfZONe2nz/f2dw80GqdNlsqkegPW6YuFbz529RuoveT4zgMQRxWayIW63W7Su/n9ZTUisXieEuk+Gqbveo9gJqKoOaSB9+yrxL2Kv+PuGbU65OJRCIWO9rbW/CFV0SuZfn4//rVX/03nxrDbYYt+Pf/9S996c++s18dLHxJze/f3d7WHRyYT0+Ner3u8HBfo9nd3tZubWk2Nye4tv38+dbGxr5Gg3g88twP4RKxe7tQEwShWql0Ox2l4es6OwoK+XyxUFBMKZEqf8vFYqVUqpTLlXK5Wi5XK5VqpVKrVmvVar1Wy2WzO1tboKNg0dA20aaWg1f81r+z6PfTqXQ+l3tp+Xw+lysMP45XUorD2sro7yhXKDuFfD4aDtstluP9faNev7u9jUDQ2Wmhlyop3OTJYjft+Mvf+W9+66+fZZq8JA0yyGe/9uV//v6Wb8CPGtXEXr0QDkbK7Ut4MbnJMMvXVjoKDrRaP003Go1mo1GrVsulUjadVmaqG/X6w91dzdbWON3klqnnz61Gozx4XhxF8ILAvl2oTQTuOqGGI4jcmghBKAQhI3vVIgh7PJPmdsNut9vp3Hr+fG1NxVi7C72fOXgFM36o299BYVhuQh72lym9ZqOPo3bl0Q4Kw/L+0F7mjWGTs9vh0B0cyA09L15sP39ut9muMIxgIivf1EeRjxs//p//6S+/q6HagiQOmq6f/PmvfOVrm1RtxDRRYKjDH/3lv/1bQ7J7U8G4/HUVqJ1dIk8URbmjg+cZhikWCjRJmk5PNcP+hBHddp4/t1ss7VZrztsuHNRIsnjR4NtyuQx7PBfMKOj3+6/1/Q7XRh5M28Y9izUaDTCkY9GKaVJ85WxJLWT7wGXRTabya0l+8QeWZSvlMoXjRr3eZDC47PZ9rRZDkHlcQcz5gF3vaaLA4M+//t/94lceOuOsyNfjrr/57V/5r3/nr5EqMyzGiGy/Xc6HX3z/3/+vf/JNT6HJX6LSdr0hnbzaeVAbP08BXKNex1F0X6vVDN8xSj10d3s7lUjMOZJB9tKB41ubm89mbhuff360v99s3PgSeSSO57JZhmHGUTOxX8jnYbf7giXy4tHoFdbZ7na7ywe1tbVHSzZOLQuvUKZ/cNtO36SeyHNcPpdDYdhutTqs1kI+n0wkjvb3SRxf2HU/RYEN7H/nq7/0X9177krEvZsffeM3/+kv/sZfrOb6nCQK3UrcuPnJN/7fv/jN//ZLv/Kr/+pv//6hgcgwoyLcOD9ufX8eqI0C1e/3g37/qU6nHdVGNzfRc/wVj3412uF53kuShr0940wz7O6a9fpWszn64U3stFots9G4t7t7eHBwnh0dHOwNu0ovKKnBLlc6mZwT7aPILF9Hwdrq6uNHTyyHnzLhZRl8C62E7N9yGZ9Fw6HZmWCUrGd3OI5LJRIYgnhfjVxXnKwu+GLGosA1wqa/+oP//iu/+WfvfPD33/nwP//pv/jVf3vf2R0ITDX64rv/8c//n7/f0Xz+737/1//qk60n3/p3v/9vvkFXLzEV/KxQ13XkUlCTJIlhGC9FHWi1SiV0a2PjYHc34Pd32u0LH2qe5304jm1sxJ8+TZ5vwSdPXDdfUut2OrsazR//0R/9s69+9Z+dt331q3/wta+ZDIbZ+fkLNEkibveFPakTabZkUFtbXX36+PGeds9xssaE31vAeuWcQRqvfoZs33KdPouFQ6OZABOJeOFHQRCymQwKw7mhBwjZLdVAHg+x4EM6RKGfoS3afQuFnn7yw4d7Vipg/Mm//B/+xcfO4oDvhwz3f/83/vATdzoBPfnz/+XPtshUTP+9/+lX/3A32lyEOuhloSZJUqfddtpso5a1rY0NzYsXNoslFok063XZ+e05XaI8z/txPPH0Kbe6KpxvzdVVdHf3pqufLMPsbG398pe//Au/8As/f/72X/7iLxpOTmbz+gs4goSDQRxFLzUbdmmgpsz9fPr48aleH/AHEcvGckBNLqOdPouEQ1eueIqiWC4WUQgqFgqpZBJDkNHaxgsOtV45+OP/47e/9n9/VpSnSwtMPb7x9T/9tT/4urc2ENgGtP43/+Nv/qWrWMGfrfzun3wbS+Tg9b/99d/9D85Sb95ewwvfBm9wwhWgJg4HEuoODycG6Gq3tk51OgSC4tFovVbrdrssw3AcJ7wa1aNALf70Kb+6Kp1vrVuBGsMwmu3tL/+Tf/JzP/dzXzh/+8f/6B+dnpxc0KaGI4jiqCMRj8/m33hKLQ3Unj5+/OTRI6NeX8jna9U6Yt3oh98VE++IcRVa4h0+thJyfWQ7euA6fZaIhq9MNEmS2q2WMi+43WohEJRJp0fZQ4Haoo5TE7ul4IO/+Fe//acfHLsgyGna+MHKn/zrP/zRIc0Kksj3IuaHf/y7X/vRofPRyh/8/l//xHS0/d7/+Wcrn5y2B4vAtJdDOs72fo4/fWf3FWfFh8NOgxHaXs6yev58b2fnaH/fYjTKa0r5/cl4PJfNFguFUrGIuVxLCLVIKOT3eguFAuR2K5Ngzkp29sjSQG3z2TOjXp/P5QRBqNcbTuNWCvlenviOSi2Hfxc1PTQcaaNvUEaTJEn2oBAM+oYeh2KRyISfyAUvqYk8kyFPP/rme9/54ccPf/y9D97/zqYBb7L8MBuLTCNlePzRNz54749+7Su/9x++/fCHH/3g0UG8wZ7N5G/lyBVKapIkiYKQTibdDgeGICdHRzubmyO0Kb2iL549U47sbG5qXrzY3do60GqP9vcPd3aiT54sW0mtWqlgCFKrVimCSM7dGdztdPY0mqdPnqjaNp89MxkMhXxeKYN0Oh2aQGnM7sUcKjUacxCwIx6NvkkZTZnvKa9OUK0y/b7cppbNjoppi9+mJsNIFNh+79XWH3CvNZfxg07S/tm//Oe/98GmM1tt9ZgFmmRwRaiJYrlUInG82WwW8nkCRfVHR7vb2zvTZiAomFPKcdqNjejjx8sGtQHLkhiWSibzudzEC3nGm4phGALDILdb1YYiiFJGU2Iqt78wTK/XV6/1e/1+rz+7b2hGsipfsQxDk2QkFOI4rpDLkWfW4lnwktqFEZQELmlb++M/X3GkbnaYwsUhOXPG1aAmSVKzXicxTFlJYMCytUolHAw67faTo6N9jUYpu40X32S0PX++nFATBCERj9Mk2e10MBjOv+64+YzmPzsg+27iOHXbcIXXn0UJ7A0VKJVKGIK0mk2GYSiCSCWTE/4O1A41UeBKcVxvQ+q9BZogpeS+K0Ot3+3Kq+QVCqNcLAjCYDCo12qyp36S9DidFpPJoNMd7e/vbW/vvHghu/p4/nwJS2qSJDUaDcjl6na7kVBIccMw0gXs3DUFBEGIhELhYJDn+Ua9Dns8Z0ddqh1qcvVUnnW0ED0DExnsylBTVlCKRSITb6BXkRVYlm21Wor771QyGY/FYpGIy2SKLV+bmiRJLMsSKFrI55VVbNvt9oTQ4OPdUaDb7Sr+HnieV9ZOPFuZXQKoLWyCXhlqkijms1kCw0Yjb6bH8dV4DlEUOY7zY1h8OE5tqYZ0yI4BeD4RjQZ8vn6/j0BQIZ8/C/vpAoGjy6WAKIqZdBpHUZZl+/0+geO5TOZsZgBQu7lkvzrUhrMLcBRNxONn30NTAzwap8atrorn222OU/vlL3/553/+5/+L87d/PM/gWyW21WoVdrv7vV4oEAgGAnOKMlUpcFC9CgiC4KWoeDQq8Hy9VkMhaOooHwC1m0viN4GaslYOjqJzun3leZ5GUfLzz/Pr68XzLb6+7rr5dT97vd6uRvM7v/VbX/ziF780dfviF7/0xS/+xq//uun0dDagvqAkT7fbhT2eer2ez2ZRGL7CFPebS2Zw5VtTgGEYeLhwlMDz8VjM7/VO9cMBoHZzKfImUFNqXcl4HIXhSrk8PgpnaoB5nscQ+HDnuUH73LC7eZ7pdjZ0e9obX6G91TIaDJ8/fvxkff3xNHuyvv5kff3po0fOC1doV2LLsixFELlstjYssvUus87zVL3AQTUqUKvVlOlQPMfRJHmepwMAtZtL3DeEmjLFPej3ozBcKhZnTyeSS2oUcered4SOnJHj6RY9tlIHRstxo1G/uVjLM1g7HRLHs5nMrBFV/X4uk0Eu9KemBFQQhHAwGA4GW60WgaLVSuVGIwAuvoAKiKKYz+UokmQYptNu4wgiu1GdtgGoTVPleo69OdQUriXicRxF06kU0++f5wtXhhpNmJEDT1IHpU480wxKnTgCh2a77hZWaKeva4X2UVJkMxmaJNvttpei0qnU6DjYuSMKyL0EqZTf6x0MBrlsliSIqQ1q6phRoNo0uxaoyWu2Dr3g4Qjip+latTp1hokCNRN84EnoPMmTqQYlh1Cz3QbUrm3dz1Hq12o1AsMa9bqPpsPB4Og42LkjCoiiGI9Ggz7fYDAIBgJBv39qgxqA2o3mh+uCmjI8rdVsRoJBZR57qVhk+n1llSUlCssPtX6vp7QvxqNRP03faMqBiy+gAqNht71ej8SwTDp9djCHEmxQ/by55LtGqCmB5Hm+Vq0G/X4MQSgcj0YixXy+3Wr1+/1+r0eS2DKX1ARBIDAsk0olYjGKIG4u2cCVF1MBQRD8Pl8sGm02GgSGzWhXfQm1BXbnvZgKzxOqa4eaclNBENqtVjqVCvr9FI6jEIQhCInjZqPBBO8vbfVTkqSQ3x8NhZLxOIlh572l50kYcI4aFeA5zjvs8ZTdbCHIeQ1qkiSlksmjvT0Mhs+rn6ox+gsS5huCmhI7ZRZBp92WJ0vl89lMxuW0maClhloqkQj4fOlkEkfR2Z3BC5IDQDCuUQHFOUc+m00nk16Kmtq0rNwuk04f7e15HI4Z51xjwO7UpeTystd7uLurDIG+0bgrQzqWufopSVKpWCRxXIYagoD8eqP5aQEv3h0OFCoWCtFwWH6iznFsL0lSMZ8/OTx0A6jdQCoKgkBi2IFWm0mlZiTBtdx5+TsKFA/OCASlEgkcQS61ZMG1SAwu8nYVqNdq8hDFobvQbCYz44lq1OunOp359FQeAwW2a1WAZVmPy3W4t1cqFq/1wlMuNhfUbnGcGkWSF64AVS6VYLd7rmlSSoxZloU9nkg4LHuLBJMKpmSDZT6UzWRwFG01m5DbXa/VZjSqsizrtNmO9/dv4cFbZsWnxa1eqxlPTsynp7fgLOdV9XPfHZfHqbkTU8yT1Nn9h6bbGqeWz+dnr61dKhQuB7XBYEBgmI+mcRTtAAdE0/Lcsh7jOS4UDPq93nqtBrlc/ZmvNKUxe39nhybJGQW6ZdXq5uIlCEIsEtnTaGiSvIX2H3kxY5rSmw/M0JEFPteMjgOT+eSml8jrdrs4ihIYFg6FZhiBorDLdYmSGsdxAZ+PxHECRev1m53qdXM5A1z5Cgp0u115QE86Lc8lwLDZT5QoSbVaTX98bNDpatXqjDLdFUJyl3/SarWsJtPxwUGxWLwFVQVBKOTzoWAgHAyEQ+dZMBQMxKKRm26PYlk2lUjIkzVnQi0cDGbPH0GpZJ6XXjqUD4IgxGMxhZfjfoHvcj67I3EvKy68W61oJOL3+S4cq8FxXMjv393eRjye2cW6OyLgm0dTWWt9b2eHwLArrz992WAMffLPrvDJ384uGV32plPPV4abXBwUjruwcvAa1ERRzGYyGIL4aDoZj9/Cu2Jq9MDBW1aA53kfRUVC8srHQb8/FonMk4nbrZbDat3d3g76/aDH4A2TjGWYUCCwr9FYTk9v2snPGwZ18X8+CbVSsYh4PLGhI9x5cvbixxCE8EIFmo0G4nZXKxVeECiCyI6tWzzjt6IoVspls9G4r9USKNpsNC58hc642p39Shnr76Ppfa325Ogom82CwsQbZobXoCYN20oglyudSuEIwjLM/Fcfc32u7t3xKIvDFTrUHZ9h6McjNbGvtPoH/H6WZTmOgyGoXCpNnHPeR1EUi4WC1WjUbm3ZLZZEPN5qNrlhBWEJRLvRKAiCwPN8p9NJp1Iuu31PozEZDOl0muOVRZfPkxwcv1iBSag1Gw3Y4ymXSpDLNX9/hyAItVqtkM+r2vK5XLVaHRU3BEFo1OuFfK5QyBcKOTVasZAv5PJyW/75I2kVt93VSkUURabfh93uxmX6iOSV7Ws1HEWP9vb2NRqbxeIlyVg0mkmn87lcHmxnFcjlMul0PBbz0bTTZjvc3d3XaJSHbpT3Ln5wwRnnKzAJtXarhcFwrVqVvaolk/OoLIpiqViErVZYp0PVaZhOBx0fnx4cQC6X0ssjCEKpUMA9JtKt8UIaWoXmhTS4S2vW70Fu13n+2QeDgd/rVdYtliSp1Wyety7B+VlI/oZhmGw6DXs8ytK5B1rt8f6+7vAQ2FQFjvb3D7TavZ0d3cGBx+lMJ5P9Xg/UOmfnsfm/nYRap9MhMKxULOayWQrHZ3ftyz7RBUEmmtns02iyWm1OhZbXatMaDbK1pXv61G40Mgwj8EOiuQ1p4rNu/ONeQpXWiDykHZ+ZDj61m/UDlj2bJ3ieTyeTKAwr4zxFUaxWKlcedy0X9BimUa+nkkl5YBCGoTCMQhCwSQVgmMAwv9ebiMVq1Wq/3wc4O5s53+TIJNR6vR5NktlMptPpQMOayAzFBUEo5vOwyeTXaku7u9Xd3YrarLq7W9Rqie1tx7Nn7vV1t8nU6/fzuTzuNmTJVT7zsZS7L2XVZrn7/dTHAc8qYnxAmb/ttupYdjCRS8Rh2qFjKyIq7rxJHH/DEUnDdYLlBiN+OBRA3gHbGQWE4TaRKODjtSgwCTWWZf0+XyIe5zjOR9ORUOg8dx0CzxfzecRs9ms05SHRqir8WxgSzf7559T6OrG66jIaM+kU6TGkyc/4zH2ZaCo0JvlxCPoMPn0Qd70ftr/vtp5MQE0QBGVgWmqshUEURbl4ThBvCLVryZfgIkCBKyswCTV5UGUwGAmFZGcMhYLsV2vafCml28tlNOI7O6lhxTOr1arO0grRnj2j1tdDq6vE2ppeq3VZT6LweivyoBt/0ImpzLqxB+3Iw6BnVSFaHl4J2z+YgJpcvi4UcBSNR6PjgzxlqGUy8hoF0+qqV85h4IdAgVtWYBJqPM9HwuGg36+0/lIEkYjFztZAGYZxmEyGzU33ixce1Zr9xQvrkGjh1VUZauvrh5ufW3WPSdtntOMzSoVG2z+DjOuuk5/EXN/MwSt5eCU0BjVBEHq9XiIWQzyeVCIx0WAqimI6lQoM1yi45VwIbgcUuEYFpkAtGg77vV75HsNXNwbDrVZr4pbdTse4s0M/fhx89EilFnj0yPn0qfPJE4VoodVVdP2ReXc1jf5Dkfy2Sq1AfBszPcCN38/BKwrUwvYPXObjVrPVbDaTiQSOojRBlEulsyOrRVFMxOPnLWA8kQHAR6DAwiowCTXFT4CPopQQy01sXu/ZyYDdTse6vZ1eXS2q1gqrq9jjx45xqK09ch18woTuSYn/T0q8o0YT4ith10e48cNxqJ0ebOMIqvikT8bjvXNGDyirSQXmmPi5sLkZBAwoIEnSJNSUnE2/WnhFFMVatQq53aXX3QYoUEsNiVZYXVWj5VdX0WlQ64feleIrKjUhdi90Bmpm/W42nWnU6/1+/2wBbfQYiIIQDYfDgcCMc0Yngx2gwMIqMAVqyXh8fDUpnucV94HNRmPUuAagtpjUmwq1iY6C8/KiskSe3N99/vSD834LjgMFFkeBSagpawWROD4eRI7jIqGQvNTxK64BqC0l1IJ+fzQcHr26xvMA2AcKqEWBKVDLpNPEmSXyWJYNB4MEimbTaZZhOu22dXsbVD8XDW1vWFLz03RsWme3WnIzCCdQYEqbmiRJcmUTQc7WQQaDQSadxmCYQFEvRZk2N1Nra0V1NqgVVlfvTpvanNVP2bkzRaWSSVBSA2hQtQJTSmr5bBaD4amtxYIgNBuNVCLxEmqgo2DBuhTepKTGcxxNEABqqn6eQeCnl9QK+TyOIDMcOoui2Go2QfVz0eqeUnzlTaA2GAxoksxc5AAePDZAgQVXYEpJrTiE2sRw84lodLtdADVVQC1k+8B1Zu7nRGoqH1mWpSkqBzyvTlUHHFSPAlOgJvsRu8jt7ZL1foZXV4Nra/bHT+yHny7NOLU88k4GuocYPsI8dm7AXZgn+/0+RZL5fF4SxQtPBicABRZWgSlQKxeLOIrOXkpjmaAWWV0NrK5CT58a9w8dJ+tM+L0FLILNGaRR9TMPr2She6TpQ8Shqw292l6YBWWvUwQBVhG7UChwwoIrMAVqlVIJR5DZ654tDdScT54EV1c9T55AZnM4FIUtz5iQyqHm/Igwfpjx3MNPP0SdJ9Vyec7ezG63SxFEuVhc8CwLggcUmK3AFKgp7k+73e6MX45DTaXTP/PDuZ+2J0+gp089JlO5XK7VGoh1gwm/O5z1uSIl1GdC7F7Y+RF6+n3S9H3UcVIplc4OzTkvWZvNJonj1Wr1vBPAcaCAKhSYArVatYqjaKfTmRGBbqdj2d6Or61lV1cz6rT06iry+PHxxgY0JNpw7ZgGbNnoBL4+iLw7iLynQnuXCb8XcPzAsLeKOE5qlfL8RJMkqVqpYAgy/2o7M7IH+Aoo8BYVmAK1eq1GYJjit/68kHW7XePenuvZM+jZM49qzbixYTUaK68qaI16w3G6S1oeeu0PVGq07aFdt+a0GOdsRxtP32KxiMJwd+bLbPx8sA8UWEwFpkCt2WgQGNZsNmeEmOO4bCaTSSbVbvVabdTkNBgM8rlsJpXIpNVsqcS464EZiTjxVTaTIVB03BfuxAngI1BAFQpMgVq73SYwrF6rXRCBG13r9bYuPhFHUZIRp3abiNQ8HxUPkTRBXKrGOs+VwTlAgVtWYArUer0eiWHzL9N9yyEGt7sJBQSej0YiAb8fQO0m5AXXvE0FpkCNZVkSxwv5/G2GA9zr7SowGAzCwWA8Gh1Vxt9ueMDdgQJXVmAK1HiO81KUPAfwylcFP1SbAv1+3+f1ZjMZADW1JR0I76QCU6AmCEIwEIhHowKYLjMp19J+7rTbFI6XSyUAtaVN4zsTsSlQE0UxGomEgK/6O5MJJEmqVauwx9Oa2eV9l/QAcVWxAtOhlkwkAl7vDO9DKo4xCPoZBZS12QkcZxnmzJfgAFBAZQpMh1o2k6FJEqzUrbLEvGpwlXURw8EgeI1dVULwuwVSYDrUyuUyjiCzHXUsUCRAUN5MAZ7naYpKJhJgPMebCQl+vRAKTIGaJEmtZhNyu3sz57QvRPBBIK5DAZZhEI+n/PrSrtdxYXANoMBbUGA61FiW9TidzXr9LYQI3PLWFWg2GigMz54Yd+uBAjcEClxRgelQ43keR5BioQA6+K+oq6p+lstmaZLs9XqqCjUILFBgugLToSYIQsDvT8TjoJFlumxLdFQUxaDfHw6FQC/BEqXqnY7KdKiJopiMxwM+H8joS587WIZBYTify4FS+dKn9R2J4LlQKxYKOIrOXlPqjmi03NGs1+sEioJht8udyncqdtOhpnSAepzOfr9/p+S4a5GVi+TDpanB2+uuJf0Sx/dcqDEMA7ndtWoV1EqWOPk5jvN7vfFYDKTyEqfyXYvauVDjBgOKIDKpFMjuS5wnet0uhiBgHvsSJ/EdjNq5UBMEIRIKBYHXwOXNFKIolopFxOMBgzmWN5HvYszOhZokSblslkBRMAN0WfMFx3EBny8UDAo8v6xxBPG6gwrMgpqyVh7oF1vWbNHtdDAYrlYqyxpBEK+7qcAsqHW7XQLDgF/vpcwZsruhTIYiCOC2YCnT9y5HahbUeJ73UlQ8Gr3LAi1r3FmWpUkyCSaNLGsC3+F4zYKaKIrxWMxH0/MMYhIEgV+Kbby3dzkiNXWuW6FQwBCkAXwW3OGHf1mjPgtqkiRVymUMQVqt1uz4M/1+JBTCUZTA1GsYjqKRYHDUMdLv96PhsBwpFFOrYcNIhUP8610Bg8HA7/OB+Z6zczX4VqUKXAA1pt9HYbg4c7k8ps/4aNrpslBByBtBVWpuxLqn3bGZzczQpXW/1/dRJGbfSBM/zVKfqtB+mqM/pR2PjjRPbSbjYMCOZ9ByqYQjSL1eHy+Wjp8A9oEC6lXgAqjxPB/0+2cswtLv9wM+n8Npima9+VY034qp0cJpyuY41Z8eOu02hmF6vX7AS+O2jUb4gZi9L+bUZ0LufjX4E9S86jj+sdNyMmAHozw6YFkfRUUjkYni2+gEsAMUULUCF0BNFMVioQB7PCz72qteiTMzXCzS6TJHsnSuGVWphVKUxWawuU9duMXtsjebTR9NYbaNRkgmmqRGy92vBj6BjGu46ft+6392W0/YV1ATRTGTSmEw3L6oSUHV2RoE/i4rcAHUJEnqdrsoBFXOjGZi+n2/12t3mKJZOt+KqZFo2WY0nKKsNoPVaSAiboi2WcxGCkdx+3P1Ek3MymU0mWjG72egd8P298eh1mw0EAjKZTKiINzlfA/ivsQKXAw1juNikUjA5xtvf5FXcSdJw8kRjNu9YVSVFkEJv8di09s9p3jETcUh2Gvb39WYjl+EoNUc9dOhfZqjVGRymJPYZx7jGmH6MO15Lw+vhOwfjKDWbrcJDIuGw9zgZ7XRJc7cNG7DBAAAA5tJREFUIGp3U4GLoSavdFurwS5Xp9MZadTtdvW6I5NVZ3Of2tVpNtep3nBgsuqIIdGoOOQhbcf7G5DhIWl9QFrUaB+Tlo+tx2se/Y/Tnvdy8EoeXgnLUNP1+/16rUbiuJei+sBt9ygfg51lVGAuqDEMQ2LY+BJq3U7HZD4J5LBYhYqq1MqkGzNbnHo6AVFx2dyEzWFY7wTeHcTuDWLvqtDusZF3A44f4MYPc/DKCGomnYYmSRxBouFwt9sdL3EvY5YGcbrrCswFNWVKDQbD3VeL5nU7HbP5JFTAE3VvvKZOq9IewjoBNadhvR98V0qsSHEVWmJFiN0LuT6agNrp0U7QHyiXSvMMor7rDwSIv/oVmAtqkiQxQ0/26VRKGZ7+Emp5NUOtcj7U1Ei0YZinQs1l0fX7DCigqf9pBTGYS4F5oTYa21EfTqwBUFvMotxUqI06CubKEeAkoIDKFZgXapIkDQYDH00TGNYdbnL1E5TUFqxMB6Cm8ucRBP8aFLgE1OQxa52On6ZpkkynUkaTLpQnVNymdmeqn6Ckdg0PCriEehS4HNQUrvloGnK5DKdHoQKA2mL1J4CSmnoePRDSm1Lg0lCTJInjuFKhYJKrnwBqAGo3lTXBdYECV1PgKlBTymtL2qa2Jg/pWLCWsvnDA0pqV3sMwK+WSQEAtZ8NvnWgFod+qaCWg1do8985zD+b0L5MeRfEBSgwVQEAtZdQg312nf7QdvwZE35v/pLRop05XlLLIysR+/s23WrQ7wNehqbmfnBwKRUAUNNTCQjx2c1WvcNmdxufLA3UIo5vOvWrPopk+sxS5l0QKaDAVAXuOtSsTj3it5ssJz6azucKiHWjH1qGklrU8b79ZNXvpfr9/tSEBweBAsuqwBtAzXKi7iEdw7mfhtNDs+XES5H9fr9WbyDWDSb8rpR4Z9HqlXOFJ/GOEF8JuT5yHv/YMSQaKKMt63ML4jVDgatDzXB6RETcvhTiS6rSvEnY6tIfaDUBn0/xxlOrNdzGjQL5ftX3japXlVamv0mYf3ikfR700aCMNiPfg6+WWIErQq3f63lcTpfT7nE7PC5VmtvtcNptfq93tJpvu9VCIRfkPIXVbC6bMeDzK8vHLHHGBVEDCpynwBWhJooi01+GbdwHLM/zDMP0+6o2OVE4jjsvvcFxoMDSK/CFcX+2Sx9bEMG3ooAois1mMxAImEym/f19m80Wj8eBc7e3khZ34ab/P21VW7Mpy8u9AAAAAElFTkSuQmCC;" vertex="1" parent="1">
          <mxGeometry x="412" y="242" width="309" height="168" as="geometry" />
        </mxCell>
        <mxCell id="OrTmt1RVUYFcJPQC6j06-30" value="关系网络" style="text;html=1;align=center;verticalAlign=middle;whiteSpace=wrap;rounded=0;fontStyle=1" vertex="1" parent="1">
          <mxGeometry x="520" y="212" width="60" height="30" as="geometry" />
        </mxCell>
      </root>
    </mxGraphModel>
  </diagram>
</mxfile>
